<svg id="_x31__px" height="512" viewBox="0 0 24 24" width="512" xmlns="http://www.w3.org/2000/svg"><path d="m6.5 24h-6c-.276 0-.5-.224-.5-.5v-4c0-.167.084-.323.223-.416l3-2c.168-.112.387-.112.555 0l3 2c.138.093.222.249.222.416v4c0 .276-.224.5-.5.5zm-5.5-1h5v-3.232l-2.5-1.667-2.5 1.667z"/><path d="m4.5 24c-.276 0-.5-.224-.5-.5v-1c0-.276-.225-.5-.5-.5s-.5.224-.5.5v1c0 .276-.224.5-.5.5s-.5-.224-.5-.5v-1c0-.827.673-1.5 1.5-1.5s1.5.673 1.5 1.5v1c0 .276-.224.5-.5.5z"/><path d="m3.5 18c-.276 0-.5-.224-.5-.5v-3c0-1.378 1.121-2.5 2.5-2.5h4c.276 0 .5.224.5.5s-.224.5-.5.5h-4c-.827 0-1.5.673-1.5 1.5v3c0 .276-.224.5-.5.5z"/><path d="m23.5 24h-6c-.276 0-.5-.224-.5-.5v-4c0-.167.084-.323.223-.416l3-2c.168-.112.387-.112.555 0l3 2c.138.093.222.249.222.416v4c0 .276-.224.5-.5.5zm-5.5-1h5v-3.232l-2.5-1.667-2.5 1.667z"/><path d="m21.5 24c-.276 0-.5-.224-.5-.5v-1c0-.276-.225-.5-.5-.5s-.5.224-.5.5v1c0 .276-.224.5-.5.5s-.5-.224-.5-.5v-1c0-.827.673-1.5 1.5-1.5s1.5.673 1.5 1.5v1c0 .276-.224.5-.5.5z"/><path d="m20.5 18c-.276 0-.5-.224-.5-.5v-3c0-.827-.673-1.5-1.5-1.5h-4c-.276 0-.5-.224-.5-.5s.224-.5.5-.5h4c1.379 0 2.5 1.122 2.5 2.5v3c0 .276-.224.5-.5.5z"/><path d="m14.5 9h-5c-1.379 0-2.5-1.122-2.5-2.5v-2c0-1.378 1.121-2.5 2.5-2.5h5c1.379 0 2.5 1.122 2.5 2.5v2c0 1.378-1.121 2.5-2.5 2.5zm-5-6c-.827 0-1.5.673-1.5 1.5v2c0 .827.673 1.5 1.5 1.5h5c.827 0 1.5-.673 1.5-1.5v-2c0-.827-.673-1.5-1.5-1.5z"/><path d="m13.5 3c-.276 0-.5-.224-.5-.5v-1.5h-2v1.5c0 .276-.224.5-.5.5s-.5-.224-.5-.5v-2c0-.276.224-.5.5-.5h3c.276 0 .5.224.5.5v2c0 .276-.224.5-.5.5z"/><path d="m13.5 5h-3c-.276 0-.5-.224-.5-.5s.224-.5.5-.5h3c.276 0 .5.224.5.5s-.224.5-.5.5z"/><path d="m13.5 7h-3c-.276 0-.5-.224-.5-.5s.224-.5.5-.5h3c.276 0 .5.224.5.5s-.224.5-.5.5z"/><path d="m14.5 24h-5c-.276 0-.5-.224-.5-.5v-15c0-.276.224-.5.5-.5h5c.276 0 .5.224.5.5v15c0 .276-.224.5-.5.5zm-4.5-1h4v-14h-4z"/><path d="m14.5 1h-5c-.276 0-.5-.224-.5-.5s.224-.5.5-.5h5c.276 0 .5.224.5.5s-.224.5-.5.5z"/></svg>