<svg id="_x31__px" height="512" viewBox="0 0 24 24" width="512" xmlns="http://www.w3.org/2000/svg"><path d="m6.5 21h-5c-.827 0-1.5-.673-1.5-1.5v-6c0-.827.673-1.5 1.5-1.5h5c.827 0 1.5.673 1.5 1.5v6c0 .827-.673 1.5-1.5 1.5zm-5-8c-.275 0-.5.224-.5.5v6c0 .276.225.5.5.5h5c.275 0 .5-.224.5-.5v-6c0-.276-.225-.5-.5-.5z"/><path d="m5.5 13h-3c-.276 0-.5-.224-.5-.5v-8c0-.276.224-.5.5-.5h3c.276 0 .5.224.5.5v8c0 .276-.224.5-.5.5zm-2.5-1h2v-7h-2z"/><path d="m6.5 5h-5c-.276 0-.5-.224-.5-.5s.224-.5.5-.5h5c.276 0 .5.224.5.5s-.224.5-.5.5z"/><path d="m23.5 21h-12c-.276 0-.5-.224-.5-.5v-15c0-.215.138-.406.342-.474l6-2c.152-.054.32-.025.45.068.131.094.208.245.208.406v1.306l5.342-1.78c.152-.054.32-.025.45.068.131.094.208.245.208.406v17c0 .276-.224.5-.5.5zm-11.5-1h11v-15.806l-5.342 1.78c-.154.051-.32.025-.45-.068-.131-.094-.208-.245-.208-.406v-1.306l-5 1.666z"/><path d="m7.5 18c-.151 0-.302-.069-.4-.2-.165-.221-.12-.534.101-.7l4-3c.221-.165.534-.122.7.1.165.221.12.534-.101.7l-4 3c-.09.067-.196.1-.3.1z"/><path d="m7.5 15c-.151 0-.302-.069-.4-.2-.165-.221-.12-.534.101-.7l4-3c.221-.166.534-.122.7.1.165.221.12.534-.101.7l-4 3c-.09.067-.196.1-.3.1z"/><path d="m20.5 15h-6c-.276 0-.5-.224-.5-.5s.224-.5.5-.5h6c.276 0 .5.224.5.5s-.224.5-.5.5z"/><path d="m20.5 18h-6c-.276 0-.5-.224-.5-.5s.224-.5.5-.5h6c.276 0 .5.224.5.5s-.224.5-.5.5z"/><path d="m20.5 12h-6c-.276 0-.5-.224-.5-.5s.224-.5.5-.5h6c.276 0 .5.224.5.5s-.224.5-.5.5z"/><path d="m20.5 9h-6c-.276 0-.5-.224-.5-.5s.224-.5.5-.5h6c.276 0 .5.224.5.5s-.224.5-.5.5z"/><path d="m7.5 16h-7c-.276 0-.5-.224-.5-.5s.224-.5.5-.5h7c.276 0 .5.224.5.5s-.224.5-.5.5z"/></svg>