<svg id="_x31__px" height="512" viewBox="0 0 24 24" width="512" xmlns="http://www.w3.org/2000/svg"><path d="m22.5 24h-7c-.827 0-1.5-.673-1.5-1.5v-5c0-.827.673-1.5 1.5-1.5h7c.827 0 1.5.673 1.5 1.5v5c0 .827-.673 1.5-1.5 1.5zm-7-7c-.276 0-.5.225-.5.5v5c0 .275.224.5.5.5h7c.276 0 .5-.225.5-.5v-5c0-.275-.224-.5-.5-.5z"/><path d="m22 16.5h-1v-1.5c0-1.103-.897-2-2-2s-2 .897-2 2v1.5h-1v-1.5c0-1.654 1.346-3 3-3s3 1.346 3 3z"/><path d="m11.5 21h-11c-.276 0-.5-.224-.5-.5v-5c0-.276.224-.5.5-.5h13c.276 0 .5.224.5.5s-.224.5-.5.5h-12.5v4h10.5c.276 0 .5.224.5.5s-.224.5-.5.5z"/><path d="m10.5 16h-5c-.276 0-.5-.224-.5-.5v-15c0-.276.224-.5.5-.5h5c.276 0 .5.224.5.5v15c0 .276-.224.5-.5.5zm-4.5-1h4v-14h-4z"/><path d="m2.5 16c-.276 0-.5-.224-.5-.5v-12c0-.276.224-.5.5-.5h3c.276 0 .5.224.5.5s-.224.5-.5.5h-2.5v11.5c0 .276-.224.5-.5.5z"/><path d="m5.5 7h-3c-.276 0-.5-.224-.5-.5s.224-.5.5-.5h3c.276 0 .5.224.5.5s-.224.5-.5.5z"/><path d="m5.5 10h-3c-.276 0-.5-.224-.5-.5s.224-.5.5-.5h3c.276 0 .5.224.5.5s-.224.5-.5.5z"/><path d="m5.5 13h-3c-.276 0-.5-.224-.5-.5s.224-.5.5-.5h3c.276 0 .5.224.5.5s-.224.5-.5.5z"/><path d="m10.5 13h-1c-.276 0-.5-.224-.5-.5s.224-.5.5-.5h1c.276 0 .5.224.5.5s-.224.5-.5.5z"/><path d="m10.5 10h-1c-.276 0-.5-.224-.5-.5s.224-.5.5-.5h1c.276 0 .5.224.5.5s-.224.5-.5.5z"/><path d="m10.5 7h-1c-.276 0-.5-.224-.5-.5s.224-.5.5-.5h1c.276 0 .5.224.5.5s-.224.5-.5.5z"/><path d="m10.5 4h-1c-.276 0-.5-.224-.5-.5s.224-.5.5-.5h1c.276 0 .5.224.5.5s-.224.5-.5.5z"/><path d="m4 19c-.551 0-1-.448-1-1s.449-1 1-1 1 .448 1 1-.449 1-1 1zm0-1.001s0 .001 0 0l.5.001z"/><path d="m11.5 18.5h-3c-.276 0-.5-.224-.5-.5s.224-.5.5-.5h3c.276 0 .5.224.5.5s-.224.5-.5.5z"/></svg>