<svg id="_x31__px" height="512" viewBox="0 0 24 24" width="512" xmlns="http://www.w3.org/2000/svg"><path d="m17.5 24c-3.584 0-6.5-2.916-6.5-6.5s2.916-6.5 6.5-6.5 6.5 2.916 6.5 6.5-2.916 6.5-6.5 6.5zm0-12c-3.033 0-5.5 2.468-5.5 5.5s2.467 5.5 5.5 5.5 5.5-2.468 5.5-5.5-2.467-5.5-5.5-5.5z"/><path d="m15.379 20.121c-.128 0-.256-.049-.354-.146-.195-.195-.195-.512 0-.707l4.242-4.242c.195-.195.512-.195.707 0s.195.512 0 .707l-4.242 4.242c-.097.097-.225.146-.353.146z"/><path d="m19.621 20.121c-.128 0-.256-.049-.354-.146l-4.242-4.242c-.195-.195-.195-.512 0-.707s.512-.195.707 0l4.242 4.242c.195.195.195.512 0 .707-.097.097-.225.146-.353.146z"/><path d="m9.5 21h-9c-.276 0-.5-.224-.5-.5v-5c0-.276.224-.5.5-.5h9c.276 0 .5.224.5.5s-.224.5-.5.5h-8.5v4h8.5c.276 0 .5.224.5.5s-.224.5-.5.5z"/><path d="m5.5 16c-.276 0-.5-.224-.5-.5v-15c0-.276.224-.5.5-.5h5c.276 0 .5.224.5.5v13c0 .276-.224.5-.5.5s-.5-.224-.5-.5v-12.5h-4v14.5c0 .276-.224.5-.5.5z"/><path d="m2.5 16c-.276 0-.5-.224-.5-.5v-12c0-.276.224-.5.5-.5h3c.276 0 .5.224.5.5s-.224.5-.5.5h-2.5v11.5c0 .276-.224.5-.5.5z"/><path d="m5.5 7h-3c-.276 0-.5-.224-.5-.5s.224-.5.5-.5h3c.276 0 .5.224.5.5s-.224.5-.5.5z"/><path d="m5.5 10h-3c-.276 0-.5-.224-.5-.5s.224-.5.5-.5h3c.276 0 .5.224.5.5s-.224.5-.5.5z"/><path d="m5.5 13h-3c-.276 0-.5-.224-.5-.5s.224-.5.5-.5h3c.276 0 .5.224.5.5s-.224.5-.5.5z"/><path d="m10.5 13h-1c-.276 0-.5-.224-.5-.5s.224-.5.5-.5h1c.276 0 .5.224.5.5s-.224.5-.5.5z"/><path d="m10.5 10h-1c-.276 0-.5-.224-.5-.5s.224-.5.5-.5h1c.276 0 .5.224.5.5s-.224.5-.5.5z"/><path d="m10.5 7h-1c-.276 0-.5-.224-.5-.5s.224-.5.5-.5h1c.276 0 .5.224.5.5s-.224.5-.5.5z"/><path d="m10.5 4h-1c-.276 0-.5-.224-.5-.5s.224-.5.5-.5h1c.276 0 .5.224.5.5s-.224.5-.5.5z"/><path d="m4 19c-.551 0-1-.448-1-1s.449-1 1-1 1 .448 1 1-.449 1-1 1zm0-1.001s0 .001 0 0l.5.001z"/><path d="m9.5 18.5h-1c-.276 0-.5-.224-.5-.5s.224-.5.5-.5h1c.276 0 .5.224.5.5s-.224.5-.5.5z"/></svg>