<svg id="_x31__px" height="512" viewBox="0 0 24 24" width="512" xmlns="http://www.w3.org/2000/svg"><path d="m17.25 22c-2.619 0-4.75-2.131-4.75-4.75s2.131-4.75 4.75-4.75 4.75 2.131 4.75 4.75-2.131 4.75-4.75 4.75zm0-8.5c-2.068 0-3.75 1.683-3.75 3.75s1.682 3.75 3.75 3.75 3.75-1.683 3.75-3.75-1.682-3.75-3.75-3.75z"/><path d="m23.5 24c-.128 0-.256-.049-.354-.146l-3.068-3.068c-.195-.195-.195-.512 0-.707s.512-.195.707 0l3.068 3.068c.195.195.195.512 0 .707-.097.097-.225.146-.353.146z"/><path d="m11.5 21h-11c-.276 0-.5-.224-.5-.5v-5c0-.276.224-.5.5-.5h10c.276 0 .5.224.5.5s-.224.5-.5.5h-9.5v4h10.5c.276 0 .5.224.5.5s-.224.5-.5.5z"/><path d="m10.5 16h-5c-.276 0-.5-.224-.5-.5v-15c0-.276.224-.5.5-.5h5c.276 0 .5.224.5.5v15c0 .276-.224.5-.5.5zm-4.5-1h4v-14h-4z"/><path d="m2.5 16c-.276 0-.5-.224-.5-.5v-12c0-.276.224-.5.5-.5h3c.276 0 .5.224.5.5s-.224.5-.5.5h-2.5v11.5c0 .276-.224.5-.5.5z"/><path d="m5.5 7h-3c-.276 0-.5-.224-.5-.5s.224-.5.5-.5h3c.276 0 .5.224.5.5s-.224.5-.5.5z"/><path d="m5.5 10h-3c-.276 0-.5-.224-.5-.5s.224-.5.5-.5h3c.276 0 .5.224.5.5s-.224.5-.5.5z"/><path d="m5.5 13h-3c-.276 0-.5-.224-.5-.5s.224-.5.5-.5h3c.276 0 .5.224.5.5s-.224.5-.5.5z"/><path d="m10.5 13h-1c-.276 0-.5-.224-.5-.5s.224-.5.5-.5h1c.276 0 .5.224.5.5s-.224.5-.5.5z"/><path d="m10.5 10h-1c-.276 0-.5-.224-.5-.5s.224-.5.5-.5h1c.276 0 .5.224.5.5s-.224.5-.5.5z"/><path d="m10.5 7h-1c-.276 0-.5-.224-.5-.5s.224-.5.5-.5h1c.276 0 .5.224.5.5s-.224.5-.5.5z"/><path d="m10.5 4h-1c-.276 0-.5-.224-.5-.5s.224-.5.5-.5h1c.276 0 .5.224.5.5s-.224.5-.5.5z"/><path d="m4 19c-.551 0-1-.448-1-1s.449-1 1-1 1 .448 1 1-.449 1-1 1zm0-1.001s0 .001 0 0l.5.001z"/><path d="m10.5 18.5h-2c-.276 0-.5-.224-.5-.5s.224-.5.5-.5h2c.276 0 .5.224.5.5s-.224.5-.5.5z"/></svg>