<svg id="_x31__px" height="512" viewBox="0 0 24 24" width="512" xmlns="http://www.w3.org/2000/svg"><path d="m19.662 24c-1.173 0-1.786-.64-2.279-1.154-.454-.472-.813-.846-1.559-.846-.744 0-1.103.373-1.555.846-.493.514-1.105 1.154-2.277 1.154-1.171 0-1.783-.64-2.276-1.154-.452-.472-.81-.846-1.555-.846-.744 0-1.102.373-1.554.846-.492.514-1.105 1.154-2.276 1.154s-1.783-.64-2.276-1.154c-.452-.472-.81-.846-1.555-.846-.276 0-.5-.224-.5-.5s.224-.5.5-.5c1.172 0 1.784.64 2.277 1.154.452.473.81.846 1.554.846s1.102-.373 1.554-.846c.492-.514 1.105-1.154 2.276-1.154 1.172 0 1.784.64 2.277 1.154.453.473.81.846 1.554.846s1.103-.373 1.555-.846c.493-.514 1.105-1.154 2.277-1.154 1.173 0 1.786.64 2.279 1.154.455.472.813.846 1.559.846s1.104-.374 1.559-.846c.493-.514 1.106-1.154 2.279-1.154.276 0 .5.224.5.5s-.224.5-.5.5c-.746 0-1.104.374-1.559.846-.493.514-1.106 1.154-2.279 1.154z"/><path d="m23.5 19h-23c-.276 0-.5-.224-.5-.5s.224-.5.5-.5h23c.276 0 .5.224.5.5s-.224.5-.5.5z"/><path d="m20.5 19h-7c-.276 0-.5-.224-.5-.5v-18c0-.276.224-.5.5-.5h7c.276 0 .5.224.5.5v18c0 .276-.224.5-.5.5zm-6.5-1h6v-17h-6z"/><path d="m21.5 1h-9c-.276 0-.5-.224-.5-.5s.224-.5.5-.5h9c.276 0 .5.224.5.5s-.224.5-.5.5z"/><path d="m10.5 19c-.276 0-.5-.224-.5-.5v-15c0-.276.224-.5.5-.5h3c.276 0 .5.224.5.5s-.224.5-.5.5h-2.5v14.5c0 .276-.224.5-.5.5z"/><path d="m13.5 7h-3c-.276 0-.5-.224-.5-.5s.224-.5.5-.5h3c.276 0 .5.224.5.5s-.224.5-.5.5z"/><path d="m13.5 10h-3c-.276 0-.5-.224-.5-.5s.224-.5.5-.5h3c.276 0 .5.224.5.5s-.224.5-.5.5z"/><path d="m13.5 13h-3c-.276 0-.5-.224-.5-.5s.224-.5.5-.5h3c.276 0 .5.224.5.5s-.224.5-.5.5z"/><path d="m13.5 16h-3c-.276 0-.5-.224-.5-.5s.224-.5.5-.5h3c.276 0 .5.224.5.5s-.224.5-.5.5z"/><path d="m20.5 16h-1c-.276 0-.5-.224-.5-.5s.224-.5.5-.5h1c.276 0 .5.224.5.5s-.224.5-.5.5z"/><path d="m20.5 13h-1c-.276 0-.5-.224-.5-.5s.224-.5.5-.5h1c.276 0 .5.224.5.5s-.224.5-.5.5z"/><path d="m20.5 10h-1c-.276 0-.5-.224-.5-.5s.224-.5.5-.5h1c.276 0 .5.224.5.5s-.224.5-.5.5z"/><path d="m20.5 7h-1c-.276 0-.5-.224-.5-.5s.224-.5.5-.5h1c.276 0 .5.224.5.5s-.224.5-.5.5z"/><path d="m20.5 4h-1c-.276 0-.5-.224-.5-.5s.224-.5.5-.5h1c.276 0 .5.224.5.5s-.224.5-.5.5z"/><path d="m5.5 23.5c-.276 0-.5-.224-.5-.5v-4h-2v3.5c0 .276-.224.5-.5.5s-.5-.224-.5-.5v-4c0-.276.224-.5.5-.5h3c.276 0 .5.224.5.5v4.5c0 .276-.224.5-.5.5z"/><path d="m18.5 23.5c-.276 0-.5-.224-.5-.5v-4.5c0-.276.224-.5.5-.5h3c.276 0 .5.224.5.5v4c0 .276-.224.5-.5.5s-.5-.224-.5-.5v-3.5h-2v4c0 .276-.224.5-.5.5z"/><path d="m8.5 19h-6c-.276 0-.5-.224-.5-.5v-9c0-.276.224-.5.5-.5h6c.276 0 .5.224.5.5v9c0 .276-.224.5-.5.5zm-5.5-1h5v-8h-5z"/><path d="m8.5 13h-3c-.276 0-.5-.224-.5-.5s.224-.5.5-.5h3c.276 0 .5.224.5.5s-.224.5-.5.5z"/><path d="m8.5 16h-3c-.276 0-.5-.224-.5-.5s.224-.5.5-.5h3c.276 0 .5.224.5.5s-.224.5-.5.5z"/><path d="m6.5 7h-2c-.276 0-.5-.224-.5-.5v-1c0-.276.224-.5.5-.5h2c.276 0 .5.224.5.5v1c0 .276-.224.5-.5.5zm-1.5-1h1z"/><path d="m2.5 10c-.096 0-.192-.027-.277-.084-.23-.153-.292-.463-.139-.693l2-3c.154-.23.465-.291.693-.139.229.153.292.463.139.693l-2 3c-.097.145-.255.223-.416.223z"/><path d="m8.5 10c-.161 0-.319-.078-.416-.223l-2-3c-.153-.23-.091-.54.139-.693.227-.152.539-.092.693.139l2 3c.153.23.091.54-.139.693-.085.057-.181.084-.277.084z"/></svg>