<svg id="_x31__px" height="512" viewBox="0 0 24 24" width="512" xmlns="http://www.w3.org/2000/svg"><path d="m19.662 24c-1.173 0-1.786-.64-2.279-1.154-.454-.472-.813-.846-1.559-.846-.744 0-1.103.373-1.555.846-.493.514-1.105 1.154-2.277 1.154-1.171 0-1.783-.64-2.276-1.154-.452-.472-.81-.846-1.555-.846-.744 0-1.102.373-1.554.846-.492.514-1.105 1.154-2.276 1.154s-1.783-.64-2.276-1.154c-.452-.472-.81-.846-1.555-.846-.276 0-.5-.224-.5-.5s.224-.5.5-.5c1.172 0 1.784.64 2.277 1.154.452.473.81.846 1.554.846s1.102-.373 1.554-.846c.492-.514 1.105-1.154 2.276-1.154 1.172 0 1.784.64 2.277 1.154.453.473.81.846 1.554.846s1.103-.373 1.555-.846c.493-.514 1.105-1.154 2.277-1.154 1.173 0 1.786.64 2.279 1.154.455.472.813.846 1.559.846s1.104-.374 1.559-.846c.493-.514 1.106-1.154 2.279-1.154.276 0 .5.224.5.5s-.224.5-.5.5c-.746 0-1.104.374-1.559.846-.493.514-1.106 1.154-2.279 1.154z"/><path d="m2.5 23c-.276 0-.5-.224-.5-.5v-2.793l-1.854-1.854c-.093-.093-.146-.22-.146-.353v-2c0-.276.224-.5.5-.5h12c.276 0 .5.224.5.5s-.224.5-.5.5h-11.5v1.293l1.854 1.854c.093.093.146.22.146.353v3c0 .276-.224.5-.5.5z"/><path d="m21.5 23c-.276 0-.5-.224-.5-.5v-3c0-.133.053-.26.146-.354l1.854-1.853v-1.293h-11.5c-.276 0-.5-.224-.5-.5s.224-.5.5-.5h12c.276 0 .5.224.5.5v2c0 .133-.053.26-.146.354l-1.854 1.853v2.793c0 .276-.224.5-.5.5z"/><path d="m5.5 23.5c-.276 0-.5-.224-.5-.5v-3.5c0-.133.053-.26.146-.354l2-2c.094-.093.221-.146.354-.146h5c.276 0 .5.224.5.5s-.224.5-.5.5h-4.793l-1.707 1.707v3.293c0 .276-.224.5-.5.5z"/><path d="m18.5 23.5c-.276 0-.5-.224-.5-.5v-3.293l-1.707-1.707h-4.793c-.276 0-.5-.224-.5-.5s.224-.5.5-.5h5c.133 0 .26.053.354.146l2 2c.093.094.146.221.146.354v3.5c0 .276-.224.5-.5.5z"/><path d="m7.5 16h-6c-.827 0-1.5-.673-1.5-1.5v-13c0-.827.673-1.5 1.5-1.5h5c.827 0 1.5.673 1.5 1.5v14c0 .276-.224.5-.5.5zm-6-15c-.275 0-.5.224-.5.5v13c0 .276.225.5.5.5h5.5v-13.5c0-.276-.225-.5-.5-.5z"/><path d="m4.5 9h-1c-.276 0-.5-.224-.5-.5v-1c0-.276.224-.5.5-.5h1c.276 0 .5.224.5.5v1c0 .276-.224.5-.5.5zm-.5-1h.01z"/><path d="m4.5 5h-1c-.276 0-.5-.224-.5-.5v-1c0-.276.224-.5.5-.5h1c.276 0 .5.224.5.5v1c0 .276-.224.5-.5.5zm-.5-1h.01z"/><path d="m4.5 13h-1c-.276 0-.5-.224-.5-.5v-1c0-.276.224-.5.5-.5h1c.276 0 .5.224.5.5v1c0 .276-.224.5-.5.5zm-.5-1h.01z"/><path d="m22.5 16h-15c-.276 0-.5-.224-.5-.5v-10c0-.276.224-.5.5-.5h15c.827 0 1.5.673 1.5 1.5v8c0 .827-.673 1.5-1.5 1.5zm-14.5-1h14.5c.275 0 .5-.224.5-.5v-8c0-.276-.225-.5-.5-.5h-14.5z"/><path d="m13.5 6h-3c-.276 0-.5-.224-.5-.5v-5c0-.276.224-.5.5-.5h3c.276 0 .5.224.5.5v5c0 .276-.224.5-.5.5zm-2.5-1h2v-4h-2z"/><path d="m20.5 6h-3c-.276 0-.5-.224-.5-.5v-5c0-.276.224-.5.5-.5h3c.276 0 .5.224.5.5v5c0 .276-.224.5-.5.5zm-2.5-1h2v-4h-2z"/><path d="m14.5 1h-5c-.276 0-.5-.224-.5-.5s.224-.5.5-.5h5c.276 0 .5.224.5.5s-.224.5-.5.5z"/><path d="m21.5 1h-5c-.276 0-.5-.224-.5-.5s.224-.5.5-.5h5c.276 0 .5.224.5.5s-.224.5-.5.5z"/><path d="m17.5 16h-4c-.276 0-.5-.224-.5-.5v-3c0-.827.673-1.5 1.5-1.5h2c.827 0 1.5.673 1.5 1.5v3c0 .276-.224.5-.5.5zm-3.5-1h3v-2.5c0-.276-.225-.5-.5-.5h-2c-.275 0-.5.224-.5.5z"/><path d="m20.5 9h-10c-.276 0-.5-.224-.5-.5s.224-.5.5-.5h10c.276 0 .5.224.5.5s-.224.5-.5.5z"/></svg>