<svg id="_x31__px" height="512" viewBox="0 0 24 24" width="512" xmlns="http://www.w3.org/2000/svg"><path d="m22.5 23h-10c-.827 0-1.5-.673-1.5-1.5v-6c0-.827.673-1.5 1.5-1.5h10c.827 0 1.5.673 1.5 1.5v6c0 .827-.673 1.5-1.5 1.5zm-10-8c-.276 0-.5.224-.5.5v6c0 .276.224.5.5.5h10c.276 0 .5-.224.5-.5v-6c0-.276-.224-.5-.5-.5z"/><path d="m20.5 23h-6c-.276 0-.5-.224-.5-.5v-3c0-.827.673-1.5 1.5-1.5h4c.827 0 1.5.673 1.5 1.5v3c0 .276-.224.5-.5.5zm-5.5-1h5v-2.5c0-.276-.224-.5-.5-.5h-4c-.276 0-.5.224-.5.5z"/><path d="m17.5 23c-.276 0-.5-.224-.5-.5v-4c0-.276.224-.5.5-.5s.5.224.5.5v4c0 .276-.224.5-.5.5z"/><path d="m12.5 23h-11c-.827 0-1.5-.673-1.5-1.5v-13c0-.246.179-.456.422-.494l19-3c.149-.022.292.019.403.113.111.096.175.235.175.381v9c0 .276-.224.5-.5.5s-.5-.224-.5-.5v-8.415l-18 2.842v12.573c0 .276.224.5.5.5h11c.276 0 .5.224.5.5s-.224.5-.5.5z"/><path d="m4.5 20h-1c-.276 0-.5-.224-.5-.5v-1c0-.276.224-.5.5-.5h1c.276 0 .5.224.5.5v1c0 .276-.224.5-.5.5zm-.5-1h.01z"/><path d="m8.5 20h-1c-.276 0-.5-.224-.5-.5v-1c0-.276.224-.5.5-.5h1c.276 0 .5.224.5.5v1c0 .276-.224.5-.5.5zm-.5-1h.01z"/><path d="m4.5 16h-1c-.276 0-.5-.224-.5-.5v-1c0-.276.224-.5.5-.5h1c.276 0 .5.224.5.5v1c0 .276-.224.5-.5.5zm-.5-1h.01z"/><path d="m8.5 16h-1c-.276 0-.5-.224-.5-.5v-1c0-.276.224-.5.5-.5h1c.276 0 .5.224.5.5v1c0 .276-.224.5-.5.5zm-.5-1h.01z"/><path d="m4.5 12h-1c-.276 0-.5-.224-.5-.5v-1c0-.276.224-.5.5-.5h1c.276 0 .5.224.5.5v1c0 .276-.224.5-.5.5zm-.5-1h.01z"/><path d="m8.5 12h-1c-.276 0-.5-.224-.5-.5v-1c0-.276.224-.5.5-.5h1c.276 0 .5.224.5.5v1c0 .276-.224.5-.5.5zm-.5-1h.01z"/><path d="m12.5 12h-1c-.276 0-.5-.224-.5-.5v-1c0-.276.224-.5.5-.5h1c.276 0 .5.224.5.5v1c0 .276-.224.5-.5.5zm-.5-1h.01z"/><path d="m16.5 12h-1c-.276 0-.5-.224-.5-.5v-1c0-.276.224-.5.5-.5h1c.276 0 .5.224.5.5v1c0 .276-.224.5-.5.5zm-.5-1h.01z"/><path d="m2.5 8.684c-.276 0-.5-.224-.5-.5v-6.684c0-.276.224-.5.5-.5h3c.276 0 .5.224.5.5v6c0 .276-.224.5-.5.5s-.5-.224-.5-.5v-5.5h-2v6.184c0 .276-.224.5-.5.5z"/><path d="m6.5 2h-5c-.276 0-.5-.224-.5-.5s.224-.5.5-.5h5c.276 0 .5.224.5.5s-.224.5-.5.5z"/></svg>