<svg id="_x31__px" height="512" viewBox="0 0 24 24" width="512" xmlns="http://www.w3.org/2000/svg"><path d="m22.5 22h-5c-.827 0-1.5-.673-1.5-1.5v-1c0-.827.673-1.5 1.5-1.5h5c.827 0 1.5.673 1.5 1.5v1c0 .827-.673 1.5-1.5 1.5zm-5-3c-.275 0-.5.224-.5.5v1c0 .276.225.5.5.5h5c.275 0 .5-.224.5-.5v-1c0-.276-.225-.5-.5-.5z"/><path d="m22.499 19c-.26 0-.479-.201-.498-.464l-.967-13.536h-2.068l-.967 13.536c-.021.276-.287.486-.534.463-.276-.02-.483-.259-.464-.534l1-14c.019-.262.236-.465.499-.465h3c.263 0 .48.203.499.464l1 14c.02.275-.188.515-.464.534-.012.002-.023.002-.036.002z"/><path d="m22.5 5h-5c-.276 0-.5-.224-.5-.5s.224-.5.5-.5h5c.276 0 .5.224.5.5s-.224.5-.5.5z"/><path d="m17.5 22h-16c-.827 0-1.5-.673-1.5-1.5v-16c0-.242.173-.449.41-.492l11-2c.151-.028.296.013.41.108s.18.236.18.384v7.64l5.658 1.886c.262.087.403.37.316.632-.088.263-.369.404-.633.316l-6-2c-.203-.068-.341-.259-.341-.474v-7.401l-10 1.818v15.583c0 .276.225.5.5.5h16c.276 0 .5.224.5.5s-.224.5-.5.5z"/><path d="m4.5 20h-1c-.276 0-.5-.224-.5-.5v-1c0-.276.224-.5.5-.5h1c.276 0 .5.224.5.5v1c0 .276-.224.5-.5.5zm-.5-1h.01z"/><path d="m8.5 20h-1c-.276 0-.5-.224-.5-.5v-1c0-.276.224-.5.5-.5h1c.276 0 .5.224.5.5v1c0 .276-.224.5-.5.5zm-.5-1h.01z"/><path d="m4.5 16h-1c-.276 0-.5-.224-.5-.5v-1c0-.276.224-.5.5-.5h1c.276 0 .5.224.5.5v1c0 .276-.224.5-.5.5zm-.5-1h.01z"/><path d="m8.5 16h-1c-.276 0-.5-.224-.5-.5v-1c0-.276.224-.5.5-.5h1c.276 0 .5.224.5.5v1c0 .276-.224.5-.5.5zm-.5-1h.01z"/><path d="m4.5 12h-1c-.276 0-.5-.224-.5-.5v-1c0-.276.224-.5.5-.5h1c.276 0 .5.224.5.5v1c0 .276-.224.5-.5.5zm-.5-1h.01z"/><path d="m8.5 12h-1c-.276 0-.5-.224-.5-.5v-1c0-.276.224-.5.5-.5h1c.276 0 .5.224.5.5v1c0 .276-.224.5-.5.5zm-.5-1h.01z"/><path d="m4.5 8h-1c-.276 0-.5-.224-.5-.5v-1c0-.276.224-.5.5-.5h1c.276 0 .5.224.5.5v1c0 .276-.224.5-.5.5zm-.5-1h.01z"/><path d="m8.5 8h-1c-.276 0-.5-.224-.5-.5v-1c0-.276.224-.5.5-.5h1c.276 0 .5.224.5.5v1c0 .276-.224.5-.5.5zm-.5-1h.01z"/><path d="m11.5 22c-.276 0-.5-.224-.5-.5v-12c0-.276.224-.5.5-.5s.5.224.5.5v12c0 .276-.224.5-.5.5z"/></svg>