<svg id="_x31__px" height="512" viewBox="0 0 24 24" width="512" xmlns="http://www.w3.org/2000/svg"><path d="m15.5 22h-14c-.827 0-1.5-.673-1.5-1.5v-11c0-.827.673-1.5 1.5-1.5h14c.827 0 1.5.673 1.5 1.5v11c0 .827-.673 1.5-1.5 1.5zm-14-13c-.276 0-.5.224-.5.5v11c0 .276.224.5.5.5h14c.276 0 .5-.224.5-.5v-11c0-.276-.224-.5-.5-.5z"/><path d="m22.5 22h-2c-.827 0-1.5-.673-1.5-1.5v-4c0-1.378 1.122-2.5 2.5-2.5s2.5 1.122 2.5 2.5v4c0 .827-.673 1.5-1.5 1.5zm-1-7c-.827 0-1.5.673-1.5 1.5v4c0 .276.224.5.5.5h2c.276 0 .5-.224.5-.5v-4c0-.827-.673-1.5-1.5-1.5z"/><path d="m13.5 12h-10c-.276 0-.5-.224-.5-.5s.224-.5.5-.5h10c.276 0 .5.224.5.5s-.224.5-.5.5z"/><path d="m13.5 15h-10c-.276 0-.5-.224-.5-.5s.224-.5.5-.5h10c.276 0 .5.224.5.5s-.224.5-.5.5z"/><path d="m10.5 22h-4c-.276 0-.5-.224-.5-.5v-3c0-.827.673-1.5 1.5-1.5h2c.827 0 1.5.673 1.5 1.5v3c0 .276-.224.5-.5.5zm-3.5-1h3v-2.5c0-.276-.224-.5-.5-.5h-2c-.276 0-.5.224-.5.5z"/><path d="m21.5 15c-.276 0-.5-.224-.5-.5v-1c0-.827-.673-1.5-1.5-1.5h-3c-.276 0-.5-.224-.5-.5s.224-.5.5-.5h3c1.378 0 2.5 1.122 2.5 2.5v1c0 .276-.224.5-.5.5z"/><path d="m23.5 18h-4c-.276 0-.5-.224-.5-.5s.224-.5.5-.5h4c.276 0 .5.224.5.5s-.224.5-.5.5z"/><path d="m6.5 9h-3c-.276 0-.5-.224-.5-.5v-6c0-.276.224-.5.5-.5h3c.276 0 .5.224.5.5v6c0 .276-.224.5-.5.5zm-2.5-1h2v-5h-2z"/><path d="m13.5 9h-3c-.276 0-.5-.224-.5-.5v-6c0-.276.224-.5.5-.5h3c.276 0 .5.224.5.5v6c0 .276-.224.5-.5.5zm-2.5-1h2v-5h-2z"/><path d="m7.5 3h-5c-.276 0-.5-.224-.5-.5s.224-.5.5-.5h5c.276 0 .5.224.5.5s-.224.5-.5.5z"/><path d="m14.5 3h-5c-.276 0-.5-.224-.5-.5s.224-.5.5-.5h5c.276 0 .5.224.5.5s-.224.5-.5.5z"/></svg>