<svg id="_x31__px" height="512" viewBox="0 0 24 24" width="512" xmlns="http://www.w3.org/2000/svg"><path d="m22.5 24h-11c-.827 0-1.5-.673-1.5-1.5 0-.293.081-.569.235-.799l5.488-8.982c.258-.44.75-.719 1.277-.719s1.019.279 1.281.727l5.495 8.992c.143.212.224.488.224.781 0 .827-.673 1.5-1.5 1.5zm-5.5-11c-.174 0-.334.089-.418.233l-5.505 9.008c-.055.082-.077.165-.077.259 0 .276.225.5.5.5h11c.275 0 .5-.224.5-.5 0-.094-.022-.177-.065-.241l-5.512-9.018c-.089-.152-.249-.241-.423-.241z"/><path d="m17 20c-.276 0-.5-.224-.5-.5v-4c0-.276.224-.5.5-.5s.5.224.5.5v4c0 .276-.224.5-.5.5z"/><circle cx="17" cy="21.5" r=".5"/><path d="m8.5 20c-.276 0-.5-.224-.5-.5v-13c0-.15.067-.292.183-.387.117-.094.269-.132.415-.103l15 3c.234.047.402.252.402.49v7.999c0 .276-.224.5-.5.5s-.5-.224-.5-.5v-7.589l-14-2.8v12.39c0 .276-.224.5-.5.5z"/><path d="m12.5 13h-1c-.276 0-.5-.224-.5-.5v-1c0-.276.224-.5.5-.5h1c.276 0 .5.224.5.5v1c0 .276-.224.5-.5.5zm-.5-1h.01z"/><path d="m8.5 20h-7c-.827 0-1.5-.673-1.5-1.5v-4.195c0-.7.496-1.316 1.18-1.465l7.214-1.578c.266-.06.536.112.595.381.06.27-.111.536-.382.595l-7.214 1.578c-.228.05-.393.255-.393.489v4.195c0 .276.225.5.5.5h7c.276 0 .5.224.5.5s-.224.5-.5.5z"/><path d="m5.5 16h-2c-.276 0-.5-.224-.5-.5s.224-.5.5-.5h2c.276 0 .5.224.5.5s-.224.5-.5.5z"/><path d="m5.5 18h-2c-.276 0-.5-.224-.5-.5s.224-.5.5-.5h2c.276 0 .5.224.5.5s-.224.5-.5.5z"/><path d="m1.519 13.777c-.014 0-.026 0-.039-.001-.275-.021-.481-.262-.46-.537l.982-12.777c.019-.261.236-.462.498-.462h3c.262 0 .479.201.498.461l.9 11.709c.021.275-.185.516-.46.537-.257.01-.516-.184-.536-.46l-.865-11.247h-2.074l-.947 12.315c-.02.263-.24.462-.497.462z"/><path d="m6.5 1h-5c-.276 0-.5-.224-.5-.5s.224-.5.5-.5h5c.276 0 .5.224.5.5s-.224.5-.5.5z"/></svg>