<svg id="_x31__px" height="512" viewBox="0 0 24 24" width="512" xmlns="http://www.w3.org/2000/svg"><path d="m15.5 17h-7c-3.032 0-5.5-2.467-5.5-5.5s2.468-5.5 5.5-5.5h7c3.032 0 5.5 2.467 5.5 5.5s-2.468 5.5-5.5 5.5zm-7-10c-2.481 0-4.5 2.019-4.5 4.5s2.019 4.5 4.5 4.5h7c2.481 0 4.5-2.019 4.5-4.5s-2.019-4.5-4.5-4.5z"/><path d="m13.5 7h-3c-.276 0-.5-.224-.5-.5v-3c0-.276.224-.5.5-.5h3c.276 0 .5.224.5.5v3c0 .276-.224.5-.5.5zm-2.5-1h2v-2h-2z"/><path d="m14.5 4h-5c-.276 0-.5-.224-.5-.5s.224-.5.5-.5h5c.276 0 .5.224.5.5s-.224.5-.5.5z"/><path d="m1.5 21c-.276 0-.5-.224-.5-.5v-7c0-1.378 1.121-2.5 2.5-2.5.276 0 .5.224.5.5s-.224.5-.5.5c-.827 0-1.5.673-1.5 1.5v7c0 .276-.224.5-.5.5z"/><path d="m22.5 21c-.276 0-.5-.224-.5-.5v-7c0-.827-.673-1.5-1.5-1.5-.276 0-.5-.224-.5-.5s.224-.5.5-.5c1.379 0 2.5 1.122 2.5 2.5v7c0 .276-.224.5-.5.5z"/><path d="m2.5 21h-2c-.276 0-.5-.224-.5-.5s.224-.5.5-.5h2c.276 0 .5.224.5.5s-.224.5-.5.5z"/><path d="m23.5 21h-2c-.276 0-.5-.224-.5-.5s.224-.5.5-.5h2c.276 0 .5.224.5.5s-.224.5-.5.5z"/><path d="m15.5 21c-.276 0-.5-.224-.5-.5v-1c0-.276-.225-.5-.5-.5h-5c-.827 0-1.5-.673-1.5-1.5v-1c0-.276.224-.5.5-.5s.5.224.5.5v1c0 .276.225.5.5.5h5c.827 0 1.5.673 1.5 1.5v1c0 .276-.224.5-.5.5z"/><path d="m8.5 17c-.276 0-.5-.224-.5-.5v-10c0-.276.224-.5.5-.5s.5.224.5.5v10c0 .276-.224.5-.5.5z"/><path d="m15.5 17c-.276 0-.5-.224-.5-.5v-10c0-.276.224-.5.5-.5s.5.224.5.5v10c0 .276-.224.5-.5.5z"/></svg>