<svg id="_x31__px" height="512" viewBox="0 0 24 24" width="512" xmlns="http://www.w3.org/2000/svg"><path d="m16.5 22h-15c-.827 0-1.5-.673-1.5-1.5v-8c0-.827.673-1.5 1.5-1.5h2.919l5.923-1.974c.152-.054.32-.025.45.068.131.094.208.245.208.406v1.306l5.342-1.78c.152-.054.32-.025.45.068.131.094.208.245.208.406v12c0 .276-.224.5-.5.5zm-15-10c-.275 0-.5.224-.5.5v8c0 .276.225.5.5.5h14.5v-10.806l-5.342 1.78c-.153.051-.32.025-.45-.068-.131-.094-.208-.245-.208-.406v-1.306l-5.342 1.78c-.051.017-.104.026-.158.026z"/><path d="m4.5 12h-3c-.276 0-.5-.224-.5-.5v-7c0-.276.224-.5.5-.5h3c.276 0 .5.224.5.5v7c0 .276-.224.5-.5.5zm-2.5-1h2v-6h-2z"/><path d="m5.5 5h-5c-.276 0-.5-.224-.5-.5s.224-.5.5-.5h5c.276 0 .5.224.5.5s-.224.5-.5.5z"/><path d="m22.5 22h-6c-.276 0-.5-.224-.5-.5v-17c0-1.378 1.121-2.5 2.5-2.5h3c1.379 0 2.5 1.122 2.5 2.5v16c0 .827-.673 1.5-1.5 1.5zm-5.5-1h5.5c.275 0 .5-.224.5-.5v-16c0-.827-.673-1.5-1.5-1.5h-3c-.827 0-1.5.673-1.5 1.5z"/><path d="m20.5 19h-1c-.276 0-.5-.224-.5-.5v-1c0-.276.224-.5.5-.5h1c.276 0 .5.224.5.5v1c0 .276-.224.5-.5.5zm-.5-1h.01z"/><path d="m20.5 15h-1c-.276 0-.5-.224-.5-.5v-1c0-.276.224-.5.5-.5h1c.276 0 .5.224.5.5v1c0 .276-.224.5-.5.5zm-.5-1h.01z"/><path d="m20.5 11h-1c-.276 0-.5-.224-.5-.5v-1c0-.276.224-.5.5-.5h1c.276 0 .5.224.5.5v1c0 .276-.224.5-.5.5zm-.5-1h.01z"/><path d="m20.5 7h-1c-.276 0-.5-.224-.5-.5v-1c0-.276.224-.5.5-.5h1c.276 0 .5.224.5.5v1c0 .276-.224.5-.5.5zm-.5-1h.01z"/><path d="m13.5 15h-10c-.276 0-.5-.224-.5-.5s.224-.5.5-.5h10c.276 0 .5.224.5.5s-.224.5-.5.5z"/><path d="m13.5 18h-10c-.276 0-.5-.224-.5-.5s.224-.5.5-.5h10c.276 0 .5.224.5.5s-.224.5-.5.5z"/></svg>