<svg id="_x31__px" height="512" viewBox="0 0 24 24" width="512" xmlns="http://www.w3.org/2000/svg"><path d="m11.5 24h-11c-.276 0-.5-.224-.5-.5v-11c0-.276.224-.5.5-.5h11c.276 0 .5.224.5.5v11c0 .276-.224.5-.5.5zm-10.5-1h10v-10h-10z"/><path d="m9.5 24h-7c-.276 0-.5-.224-.5-.5v-5.5c0-2.206 1.794-4 4-4s4 1.794 4 4v5.5c0 .276-.224.5-.5.5zm-6.5-1h6v-5c0-1.654-1.346-3-3-3s-3 1.346-3 3z"/><path d="m9.5 13h-7c-.276 0-.5-.224-.5-.5v-2c0-.276.224-.5.5-.5h7c.276 0 .5.224.5.5v2c0 .276-.224.5-.5.5zm-6.5-1h6v-1h-6z"/><path d="m8.499 11c-.253 0-.471-.192-.496-.45l-.955-9.55h-2.096l-.955 9.55c-.027.275-.28.468-.547.448-.274-.027-.476-.272-.447-.547l1-10c.025-.256.24-.451.497-.451h3c.257 0 .472.195.497.45l1 10c.028.275-.173.52-.447.547-.017.002-.034.003-.051.003z"/><path d="m23.5 24h-12c-.276 0-.5-.224-.5-.5v-8c0-.276.224-.5.5-.5h12c.276 0 .5.224.5.5v8c0 .276-.224.5-.5.5zm-11.5-1h11v-7h-11z"/><path d="m21.5 18h-8c-.276 0-.5-.224-.5-.5s.224-.5.5-.5h8c.276 0 .5.224.5.5s-.224.5-.5.5z"/><path d="m21.5 20h-8c-.276 0-.5-.224-.5-.5s.224-.5.5-.5h8c.276 0 .5.224.5.5s-.224.5-.5.5z"/><path d="m21.5 22h-8c-.276 0-.5-.224-.5-.5s.224-.5.5-.5h8c.276 0 .5.224.5.5s-.224.5-.5.5z"/></svg>