<svg id="_x31__px" height="512" viewBox="0 0 24 24" width="512" xmlns="http://www.w3.org/2000/svg"><path d="m17.5 6h-11c-.276 0-.5-.224-.5-.5s.224-.5.5-.5h11c.276 0 .5.224.5.5s-.224.5-.5.5z"/><path d="m23.5 22h-23c-.276 0-.5-.224-.5-.5s.224-.5.5-.5h23c.276 0 .5.224.5.5s-.224.5-.5.5z"/><path d="m22.5 22c-.166 0-.329-.083-.424-.235l-.238-.381c-3.165-5.065-4.838-10.898-4.838-16.869v-1.515h-10v1.515c0 5.971-1.673 11.804-4.838 16.869l-.238.381c-.147.235-.454.306-.69.159-.233-.146-.305-.455-.158-.689l.238-.381c3.066-4.905 4.686-10.555 4.686-16.339v-2.015c0-.276.224-.5.5-.5h11c.276 0 .5.224.5.5v2.015c0 5.784 1.62 11.434 4.686 16.339l.238.381c.146.234.075.542-.158.689-.083.052-.175.076-.266.076z"/></svg>