<svg id="_x31__px" height="512" viewBox="0 0 24 24" width="512" xmlns="http://www.w3.org/2000/svg"><path d="m23.5 21h-11c-.276 0-.5-.224-.5-.5v-6c0-.276.224-.5.5-.5h11c.276 0 .5.224.5.5v6c0 .276-.224.5-.5.5zm-10.5-1h10v-5h-10z"/><path d="m23.5 17h-3c-.276 0-.5-.224-.5-.5s.224-.5.5-.5h3c.276 0 .5.224.5.5s-.224.5-.5.5z"/><path d="m23.5 19h-3c-.276 0-.5-.224-.5-.5s.224-.5.5-.5h3c.276 0 .5.224.5.5s-.224.5-.5.5z"/><path d="m20.5 15h-6c-.276 0-.5-.224-.5-.5v-2c0-.276.224-.5.5-.5h6c.276 0 .5.224.5.5v2c0 .276-.224.5-.5.5zm-5.5-1h5v-1h-5z"/><path d="m17.5 13c-.276 0-.5-.224-.5-.5v-2c0-.276.224-.5.5-.5s.5.224.5.5v2c0 .276-.224.5-.5.5z"/><path d="m17.5 11c-1.378 0-2.5-1.122-2.5-2.5s1.122-2.5 2.5-2.5 2.5 1.122 2.5 2.5-1.122 2.5-2.5 2.5zm0-4c-.827 0-1.5.673-1.5 1.5s.673 1.5 1.5 1.5 1.5-.673 1.5-1.5-.673-1.5-1.5-1.5z"/><path d="m3.5 21h-3c-.276 0-.5-.224-.5-.5v-11.5c0-1.103.897-2 2-2s2 .897 2 2v11.5c0 .276-.224.5-.5.5zm-2.5-1h2v-11c0-.551-.449-1-1-1s-1 .449-1 1z"/><path d="m9.5 21h-3c-.276 0-.5-.224-.5-.5v-11.5c0-1.103.897-2 2-2s2 .897 2 2v11.5c0 .276-.224.5-.5.5zm-2.5-1h2v-11c0-.551-.449-1-1-1s-1 .449-1 1z"/><path d="m2 8c-.276 0-.5-.224-.5-.5v-2c0-1.378 1.122-2.5 2.5-2.5h11.5c1.378 0 2.5 1.122 2.5 2.5v1c0 .276-.224.5-.5.5s-.5-.224-.5-.5v-1c0-.827-.673-1.5-1.5-1.5h-11.5c-.827 0-1.5.673-1.5 1.5v2c0 .276-.224.5-.5.5z"/><path d="m8 8c-.276 0-.5-.224-.5-.5v-4c0-.276.224-.5.5-.5s.5.224.5.5v4c0 .276-.224.5-.5.5z"/><path d="m15.5 9h-1c-.276 0-.5-.224-.5-.5s.224-.5.5-.5h1c.276 0 .5.224.5.5s-.224.5-.5.5z"/><path d="m20.5 9h-1c-.276 0-.5-.224-.5-.5s.224-.5.5-.5h1c.276 0 .5.224.5.5s-.224.5-.5.5z"/></svg>