<svg id="_x31__px" height="512" viewBox="0 0 24 24" width="512" xmlns="http://www.w3.org/2000/svg"><path d="m22.5 24h-7c-.827 0-1.5-.673-1.5-1.5v-5c0-.827.673-1.5 1.5-1.5h7c.827 0 1.5.673 1.5 1.5v5c0 .827-.673 1.5-1.5 1.5zm-7-7c-.275 0-.5.224-.5.5v5c0 .276.225.5.5.5h7c.275 0 .5-.224.5-.5v-5c0-.276-.225-.5-.5-.5z"/><path d="m22 16.5h-1v-1.5c0-1.103-.897-2-2-2s-2 .897-2 2v1.5h-1v-1.5c0-1.654 1.346-3 3-3s3 1.346 3 3z"/><path d="m14.036 14.606c-.125 0-.25-.046-.347-.14-1.089-1.047-1.689-2.456-1.689-3.966 0-3.033 2.468-5.5 5.5-5.5s5.5 2.467 5.5 5.5c0 .276-.224.5-.5.5s-.5-.224-.5-.5c0-2.481-2.019-4.5-4.5-4.5s-4.5 2.019-4.5 4.5c0 1.236.491 2.389 1.383 3.246.199.191.205.508.014.707-.098.102-.23.153-.361.153z"/><path d="m23.5 11h-12c-.276 0-.5-.224-.5-.5s.224-.5.5-.5h12c.276 0 .5.224.5.5s-.224.5-.5.5z"/><path d="m13.5 15c-.276 0-.5-.224-.5-.5v-.931c0-.276.224-.5.5-.5s.5.224.5.5v.931c0 .276-.224.5-.5.5z"/><path d="m18.5 6h-2c-.276 0-.5-.224-.5-.5v-1c0-.276.224-.5.5-.5h2c.276 0 .5.224.5.5v1c0 .276-.224.5-.5.5zm-1.5-1h1z"/><path d="m5.5 9h-2c-.276 0-.5-.224-.5-.5v-1c0-.276.224-.5.5-.5h2c.276 0 .5.224.5.5v1c0 .276-.224.5-.5.5zm-1.5-1h1z"/><path d="m8.5 18h-8c-.276 0-.5-.224-.5-.5v-7c0-.276.224-.5.5-.5h8c.276 0 .5.224.5.5v7c0 .276-.224.5-.5.5zm-7.5-1h7v-6h-7z"/><path d="m7.5 11h-6c-.276 0-.5-.224-.5-.5v-1c0-.827.673-1.5 1.5-1.5h4c.827 0 1.5.673 1.5 1.5v1c0 .276-.224.5-.5.5zm-5.5-1h5v-.5c0-.276-.225-.5-.5-.5h-4c-.275 0-.5.224-.5.5z"/><path d="m4.5 8c-.276 0-.5-.224-.5-.5v-5c0-1.378 1.121-2.5 2.5-2.5h9c1.379 0 2.5 1.122 2.5 2.5v2c0 .276-.224.5-.5.5s-.5-.224-.5-.5v-2c0-.827-.673-1.5-1.5-1.5h-9c-.827 0-1.5.673-1.5 1.5v5c0 .276-.224.5-.5.5z"/><path d="m2.5 18c-.276 0-.5-.224-.5-.5v-7c0-.276.224-.5.5-.5s.5.224.5.5v7c0 .276-.224.5-.5.5z"/><path d="m6.5 18c-.276 0-.5-.224-.5-.5v-7c0-.276.224-.5.5-.5s.5.224.5.5v7c0 .276-.224.5-.5.5z"/></svg>