<svg id="_x31__px" height="512" viewBox="0 0 24 24" width="512" xmlns="http://www.w3.org/2000/svg"><path d="m17.5 24c-3.584 0-6.5-2.916-6.5-6.5s2.916-6.5 6.5-6.5 6.5 2.916 6.5 6.5-2.916 6.5-6.5 6.5zm0-12c-3.033 0-5.5 2.468-5.5 5.5s2.467 5.5 5.5 5.5 5.5-2.468 5.5-5.5-2.467-5.5-5.5-5.5z"/><path d="m19.5 20.5c-.128 0-.256-.049-.354-.146l-2-2c-.093-.094-.146-.221-.146-.354v-3.5c0-.276.224-.5.5-.5s.5.224.5.5v3.293l1.854 1.854c.195.195.195.512 0 .707-.098.097-.226.146-.354.146z"/><path d="m22.5 11c-.276 0-.5-.224-.5-.5 0-2.481-2.019-4.5-4.5-4.5s-4.5 2.019-4.5 4.5c0 .276-.224.5-.5.5s-.5-.224-.5-.5c0-3.033 2.467-5.5 5.5-5.5s5.5 2.467 5.5 5.5c0 .276-.224.5-.5.5z"/><path d="m23.5 11h-2c-.276 0-.5-.224-.5-.5s.224-.5.5-.5h2c.276 0 .5.224.5.5s-.224.5-.5.5z"/><path d="m13.5 11h-2c-.276 0-.5-.224-.5-.5s.224-.5.5-.5h2c.276 0 .5.224.5.5s-.224.5-.5.5z"/><path d="m18.5 6h-2c-.276 0-.5-.224-.5-.5v-1c0-.276.224-.5.5-.5h2c.276 0 .5.224.5.5v1c0 .276-.224.5-.5.5zm-1.5-1h1z"/><path d="m5.5 9h-2c-.276 0-.5-.224-.5-.5v-1c0-.276.224-.5.5-.5h2c.276 0 .5.224.5.5v1c0 .276-.224.5-.5.5zm-1.5-1h1z"/><path d="m8.5 18h-8c-.276 0-.5-.224-.5-.5v-7c0-.276.224-.5.5-.5h8c.276 0 .5.224.5.5v7c0 .276-.224.5-.5.5zm-7.5-1h7v-6h-7z"/><path d="m7.5 11h-6c-.276 0-.5-.224-.5-.5v-1c0-.827.673-1.5 1.5-1.5h4c.827 0 1.5.673 1.5 1.5v1c0 .276-.224.5-.5.5zm-5.5-1h5v-.5c0-.276-.224-.5-.5-.5h-4c-.276 0-.5.224-.5.5z"/><path d="m4.5 8c-.276 0-.5-.224-.5-.5v-5c0-1.378 1.122-2.5 2.5-2.5h9c1.378 0 2.5 1.122 2.5 2.5v2c0 .276-.224.5-.5.5s-.5-.224-.5-.5v-2c0-.827-.673-1.5-1.5-1.5h-9c-.827 0-1.5.673-1.5 1.5v5c0 .276-.224.5-.5.5z"/><path d="m2.5 18c-.276 0-.5-.224-.5-.5v-7c0-.276.224-.5.5-.5s.5.224.5.5v7c0 .276-.224.5-.5.5z"/><path d="m6.5 18c-.276 0-.5-.224-.5-.5v-7c0-.276.224-.5.5-.5s.5.224.5.5v7c0 .276-.224.5-.5.5z"/></svg>