<svg id="_x31__px" height="512" viewBox="0 0 24 24" width="512" xmlns="http://www.w3.org/2000/svg"><path d="m16 19c-1.103 0-2-.897-2-2s.897-2 2-2 2 .897 2 2-.897 2-2 2zm0-3c-.552 0-1 .449-1 1s.448 1 1 1 1-.449 1-1-.448-1-1-1z"/><path d="m19.5 24c-.276 0-.5-.224-.5-.5v-1c0-.827-.673-1.5-1.5-1.5h-3c-.827 0-1.5.673-1.5 1.5v1c0 .276-.224.5-.5.5s-.5-.224-.5-.5v-1c0-1.378 1.121-2.5 2.5-2.5h3c1.379 0 2.5 1.122 2.5 2.5v1c0 .276-.224.5-.5.5z"/><path d="m22 20.5c-.276 0-.5-.224-.5-.5v-3c0-.276.224-.5.5-.5s.5.224.5.5v3c0 .276-.224.5-.5.5z"/><path d="m23.5 19h-3c-.276 0-.5-.224-.5-.5s.224-.5.5-.5h3c.276 0 .5.224.5.5s-.224.5-.5.5z"/><path d="m21.035 14.536c-.128 0-.256-.049-.354-.146-.195-.195-.195-.512 0-.707.851-.851 1.319-1.981 1.319-3.183s-.468-2.332-1.318-3.182-1.98-1.318-3.182-1.318-2.332.468-3.182 1.318-1.318 1.98-1.318 3.182.468 2.332 1.318 3.182c.195.195.195.512 0 .707s-.512.195-.707 0c-1.039-1.038-1.611-2.42-1.611-3.889s.572-2.851 1.611-3.889c1.038-1.039 2.42-1.611 3.889-1.611s2.851.572 3.889 1.611c1.039 1.038 1.611 2.42 1.611 3.889s-.572 2.851-1.611 3.889c-.098.098-.226.147-.354.147z"/><path d="m23.5 11h-12c-.276 0-.5-.224-.5-.5s.224-.5.5-.5h12c.276 0 .5.224.5.5s-.224.5-.5.5z"/><path d="m18.5 6h-2c-.276 0-.5-.224-.5-.5v-1c0-.276.224-.5.5-.5h2c.276 0 .5.224.5.5v1c0 .276-.224.5-.5.5zm-1.5-1h1z"/><path d="m5.5 9h-2c-.276 0-.5-.224-.5-.5v-1c0-.276.224-.5.5-.5h2c.276 0 .5.224.5.5v1c0 .276-.224.5-.5.5zm-1.5-1h1z"/><path d="m8.5 18h-8c-.276 0-.5-.224-.5-.5v-7c0-.276.224-.5.5-.5h8c.276 0 .5.224.5.5v7c0 .276-.224.5-.5.5zm-7.5-1h7v-6h-7z"/><path d="m7.5 11h-6c-.276 0-.5-.224-.5-.5v-1c0-.827.673-1.5 1.5-1.5h4c.827 0 1.5.673 1.5 1.5v1c0 .276-.224.5-.5.5zm-5.5-1h5v-.5c0-.276-.225-.5-.5-.5h-4c-.275 0-.5.224-.5.5z"/><path d="m4.5 8c-.276 0-.5-.224-.5-.5v-5c0-1.378 1.121-2.5 2.5-2.5h9c1.379 0 2.5 1.122 2.5 2.5v2c0 .276-.224.5-.5.5s-.5-.224-.5-.5v-2c0-.827-.673-1.5-1.5-1.5h-9c-.827 0-1.5.673-1.5 1.5v5c0 .276-.224.5-.5.5z"/><path d="m2.5 18c-.276 0-.5-.224-.5-.5v-7c0-.276.224-.5.5-.5s.5.224.5.5v7c0 .276-.224.5-.5.5z"/><path d="m6.5 18c-.276 0-.5-.224-.5-.5v-7c0-.276.224-.5.5-.5s.5.224.5.5v7c0 .276-.224.5-.5.5z"/></svg>