<svg id="_x31__px" height="512" viewBox="0 0 24 24" width="512" xmlns="http://www.w3.org/2000/svg"><path d="m14.5 19h-14c-.276 0-.5-.224-.5-.5v-9c0-.179.096-.345.252-.434l7-4c.153-.088.343-.088.496 0l7 4c.156.089.252.255.252.434v9c0 .276-.224.5-.5.5zm-13.5-1h13v-8.21l-6.5-3.714-6.5 3.714z"/><path d="m11.5 19h-8c-.276 0-.5-.224-.5-.5v-6c0-.276.224-.5.5-.5h8c.276 0 .5.224.5.5v6c0 .276-.224.5-.5.5zm-7.5-1h7v-5h-7z"/><path d="m20.5 19h-3c-.276 0-.5-.224-.5-.5v-3c0-.276.224-.5.5-.5h3c.276 0 .5.224.5.5v3c0 .276-.224.5-.5.5zm-2.5-1h2v-2h-2z"/><path d="m23.5 19h-3c-.276 0-.5-.224-.5-.5v-3c0-.276.224-.5.5-.5h3c.276 0 .5.224.5.5v3c0 .276-.224.5-.5.5zm-2.5-1h2v-2h-2z"/><path d="m20.5 16h-3c-.276 0-.5-.224-.5-.5v-3c0-.276.224-.5.5-.5h3c.276 0 .5.224.5.5v3c0 .276-.224.5-.5.5zm-2.5-1h2v-2h-2z"/><path d="m23.5 16h-3c-.276 0-.5-.224-.5-.5v-3c0-.276.224-.5.5-.5h3c.276 0 .5.224.5.5v3c0 .276-.224.5-.5.5zm-2.5-1h2v-2h-2z"/><path d="m20.5 13h-3c-.276 0-.5-.224-.5-.5v-3c0-.276.224-.5.5-.5h3c.276 0 .5.224.5.5v3c0 .276-.224.5-.5.5zm-2.5-1h2v-2h-2z"/><path d="m23.5 10h-3c-.276 0-.5-.224-.5-.5v-3c0-.276.224-.5.5-.5h3c.276 0 .5.224.5.5v3c0 .276-.224.5-.5.5zm-2.5-1h2v-2h-2z"/><path d="m23.5 13h-3c-.276 0-.5-.224-.5-.5v-3c0-.276.224-.5.5-.5h3c.276 0 .5.224.5.5v3c0 .276-.224.5-.5.5zm-2.5-1h2v-2h-2z"/></svg>