<svg id="_x31__px" height="512" viewBox="0 0 24 24" width="512" xmlns="http://www.w3.org/2000/svg"><path d="m12 12c-1.103 0-2-.897-2-2s.897-2 2-2 2 .897 2 2-.897 2-2 2zm0-3c-.551 0-1 .449-1 1s.449 1 1 1 1-.449 1-1-.449-1-1-1z"/><path d="m5.469 16.227c-.115 0-.23-.008-.346-.024-.753-.106-1.403-.544-1.783-1.203-.38-.658-.435-1.44-.15-2.145s.868-1.229 1.599-1.438l5.525-1.581c.264-.073.542.078.618.343.064.224-.034.455-.225.568.193-.109.442-.078.604.088.192.199.187.515-.012.707l-4.131 3.994c-.463.448-1.068.691-1.699.691zm5.227-5.474c-.033.019-.069.034-.107.044l-5.525 1.581c-.433.124-.778.434-.947.852-.169.417-.136.88.089 1.27s.61.649 1.056.712c.451.063.887-.081 1.21-.394l4.131-3.994c.029-.028.061-.052.093-.071z"/><path d="m18.531 16.227c-.631 0-1.236-.243-1.699-.69l-4.131-3.994c-.198-.192-.204-.508-.012-.707.161-.167.411-.197.604-.088-.191-.113-.289-.345-.225-.568.076-.266.355-.417.618-.343l5.525 1.581c.731.209 1.313.733 1.599 1.438s.23 1.487-.15 2.145c-.38.659-1.03 1.097-1.783 1.202-.116.015-.231.024-.346.024zm-5.227-5.474c.033.02.064.043.093.071l4.131 3.994c.323.313.761.455 1.21.394.446-.063.831-.322 1.056-.712s.258-.853.089-1.27c-.168-.417-.514-.728-.947-.852l-5.525-1.581c-.038-.01-.074-.026-.107-.044z"/><path d="m12.5 9c-.04 0-.081-.005-.122-.015-.223-.056-.373-.254-.378-.474-.005.22-.155.418-.379.474-.269.067-.539-.096-.606-.364l-1.393-5.575c-.185-.737-.022-1.504.445-2.103.468-.599 1.173-.943 1.933-.943s1.465.344 1.933.943c.468.6.63 1.366.446 2.104l-1.394 5.575c-.057.227-.26.378-.485.378zm-.5-8c-.45 0-.868.204-1.145.559-.277.354-.373.809-.264 1.246l1.394 5.575c.009.036.014.073.015.11.001-.037.006-.074.015-.111l1.394-5.575c.109-.437.013-.891-.264-1.246-.277-.354-.695-.558-1.145-.558z"/><path d="m13.5 15h-3c-.161 0-.312-.077-.406-.208-.094-.13-.12-.298-.068-.451l1-3c.087-.262.369-.405.632-.316.206.068.337.257.342.462.005-.205.136-.394.342-.462.264-.089.545.054.632.316l1 3c.051.152.025.32-.068.451-.094.131-.245.208-.406.208zm-2.306-1h1.612l-.78-2.342c-.017-.049-.025-.098-.026-.146-.001.048-.009.098-.026.146z"/><path d="m13.5 22h-3c-.276 0-.5-.224-.5-.5v-7c0-.276.224-.5.5-.5h3c.276 0 .5.224.5.5v7c0 .276-.224.5-.5.5zm-2.5-1h2v-6h-2z"/><path d="m20.5 24h-17c-.276 0-.5-.224-.5-.5s.224-.5.5-.5h17c.276 0 .5.224.5.5s-.224.5-.5.5z"/><path d="m16.5 24h-9c-.173 0-.334-.09-.425-.237s-.1-.332-.022-.486l1-2c.085-.17.258-.277.447-.277h7c.189 0 .362.107.447.276l1 2c.078.155.069.339-.022.486s-.252.238-.425.238zm-8.191-1h7.382l-.5-1h-6.382z"/></svg>