<svg id="_x31__px" height="512" viewBox="0 0 24 24" width="512" xmlns="http://www.w3.org/2000/svg"><path d="m18.5 21h-13c-.276 0-.5-.224-.5-.5v-17c0-.276.224-.5.5-.5h13c.276 0 .5.224.5.5v17c0 .276-.224.5-.5.5zm-12.5-1h12v-16h-12z"/><path d="m23.5 21h-5c-.276 0-.5-.224-.5-.5v-12c0-.276.224-.5.5-.5h5c.276 0 .5.224.5.5v12c0 .276-.224.5-.5.5zm-4.5-1h4v-11h-4z"/><path d="m19.5 4h-15c-.276 0-.5-.224-.5-.5s.224-.5.5-.5h15c.276 0 .5.224.5.5s-.224.5-.5.5z"/><path d="m15.5 7h-7c-.276 0-.5-.224-.5-.5s.224-.5.5-.5h7c.276 0 .5.224.5.5s-.224.5-.5.5z"/><path d="m15.5 10h-7c-.276 0-.5-.224-.5-.5s.224-.5.5-.5h7c.276 0 .5.224.5.5s-.224.5-.5.5z"/><path d="m15.5 13h-7c-.276 0-.5-.224-.5-.5s.224-.5.5-.5h7c.276 0 .5.224.5.5s-.224.5-.5.5z"/><path d="m21.5 12h-1.5c-.276 0-.5-.224-.5-.5s.224-.5.5-.5h1.5c.276 0 .5.224.5.5s-.224.5-.5.5z"/><path d="m21.5 15h-1.5c-.276 0-.5-.224-.5-.5s.224-.5.5-.5h1.5c.276 0 .5.224.5.5s-.224.5-.5.5z"/><path d="m21.5 18h-1.5c-.276 0-.5-.224-.5-.5s.224-.5.5-.5h1.5c.276 0 .5.224.5.5s-.224.5-.5.5z"/><path d="m5.5 21h-5c-.276 0-.5-.224-.5-.5v-12c0-.276.224-.5.5-.5h5c.276 0 .5.224.5.5v12c0 .276-.224.5-.5.5zm-4.5-1h4v-11h-4z"/><path d="m3.5 12h-1.5c-.276 0-.5-.224-.5-.5s.224-.5.5-.5h1.5c.276 0 .5.224.5.5s-.224.5-.5.5z"/><path d="m3.5 15h-1.5c-.276 0-.5-.224-.5-.5s.224-.5.5-.5h1.5c.276 0 .5.224.5.5s-.224.5-.5.5z"/><path d="m3.5 18h-1.5c-.276 0-.5-.224-.5-.5s.224-.5.5-.5h1.5c.276 0 .5.224.5.5s-.224.5-.5.5z"/><path d="m15.5 21c-.276 0-.5-.224-.5-.5v-4.5h-6v4.5c0 .276-.224.5-.5.5s-.5-.224-.5-.5v-5c0-.276.224-.5.5-.5h7c.276 0 .5.224.5.5v5c0 .276-.224.5-.5.5z"/><path d="m15.5 18h-7c-.276 0-.5-.224-.5-.5s.224-.5.5-.5h7c.276 0 .5.224.5.5s-.224.5-.5.5z"/></svg>