<svg id="_x31__px" height="512" viewBox="0 0 24 24" width="512" xmlns="http://www.w3.org/2000/svg"><path d="m18.5 24c-.06 0-.119-.011-.177-.032-.224-.085-.355-.314-.316-.55l.903-5.418h-2.41c-.188 0-.358-.104-.444-.271-.086-.166-.071-.367.037-.52l5-7c.139-.192.393-.258.606-.168.216.094.337.326.291.557l-.88 4.402h2.39c.182 0 .35.099.438.258s.083.354-.014.507l-5 8c-.094.15-.256.235-.424.235zm-1.028-7h2.028c.147 0 .286.064.382.177.095.112.136.261.111.405l-.588 3.525 3.193-5.107h-2.098c-.149 0-.292-.067-.387-.183s-.133-.269-.104-.415l.543-2.716z"/><path d="m15.5 21h-15c-.276 0-.5-.224-.5-.5v-5c0-.276.224-.5.5-.5h14c.276 0 .5.224.5.5s-.224.5-.5.5h-13.5v4h14.5c.276 0 .5.224.5.5s-.224.5-.5.5z"/><path d="m10.5 16h-5c-.276 0-.5-.224-.5-.5v-15c0-.276.224-.5.5-.5h5c.276 0 .5.224.5.5v15c0 .276-.224.5-.5.5zm-4.5-1h4v-14h-4z"/><path d="m2.5 16c-.276 0-.5-.224-.5-.5v-12c0-.276.224-.5.5-.5h3c.276 0 .5.224.5.5s-.224.5-.5.5h-2.5v11.5c0 .276-.224.5-.5.5z"/><path d="m5.5 7h-3c-.276 0-.5-.224-.5-.5s.224-.5.5-.5h3c.276 0 .5.224.5.5s-.224.5-.5.5z"/><path d="m5.5 10h-3c-.276 0-.5-.224-.5-.5s.224-.5.5-.5h3c.276 0 .5.224.5.5s-.224.5-.5.5z"/><path d="m5.5 13h-3c-.276 0-.5-.224-.5-.5s.224-.5.5-.5h3c.276 0 .5.224.5.5s-.224.5-.5.5z"/><path d="m10.5 13h-1c-.276 0-.5-.224-.5-.5s.224-.5.5-.5h1c.276 0 .5.224.5.5s-.224.5-.5.5z"/><path d="m10.5 10h-1c-.276 0-.5-.224-.5-.5s.224-.5.5-.5h1c.276 0 .5.224.5.5s-.224.5-.5.5z"/><path d="m10.5 7h-1c-.276 0-.5-.224-.5-.5s.224-.5.5-.5h1c.276 0 .5.224.5.5s-.224.5-.5.5z"/><path d="m10.5 4h-1c-.276 0-.5-.224-.5-.5s.224-.5.5-.5h1c.276 0 .5.224.5.5s-.224.5-.5.5z"/><path d="m4 19c-.552 0-1-.448-1-1s.448-1 1-1 1 .448 1 1-.448 1-1 1zm0-1.001.5.001z"/><path d="m14.5 18.5h-6c-.276 0-.5-.224-.5-.5s.224-.5.5-.5h6c.276 0 .5.224.5.5s-.224.5-.5.5z"/></svg>