<svg id="_x31__px" height="512" viewBox="0 0 24 24" width="512" xmlns="http://www.w3.org/2000/svg"><path d="m14.5 9h-5c-1.378 0-2.5-1.122-2.5-2.5v-2c0-1.378 1.122-2.5 2.5-2.5h5c1.378 0 2.5 1.122 2.5 2.5v2c0 1.378-1.122 2.5-2.5 2.5zm-5-6c-.827 0-1.5.673-1.5 1.5v2c0 .827.673 1.5 1.5 1.5h5c.827 0 1.5-.673 1.5-1.5v-2c0-.827-.673-1.5-1.5-1.5z"/><path d="m13.5 3c-.276 0-.5-.224-.5-.5v-1.5h-2v1.5c0 .276-.224.5-.5.5s-.5-.224-.5-.5v-2c0-.276.224-.5.5-.5h3c.276 0 .5.224.5.5v2c0 .276-.224.5-.5.5z"/><path d="m22.5 18c-.276 0-.5-.224-.5-.5v-10c0-.827-.673-1.5-1.5-1.5h-4c-.276 0-.5-.224-.5-.5s.224-.5.5-.5h4c1.378 0 2.5 1.122 2.5 2.5v10c0 .276-.224.5-.5.5z"/><path d="m13.5 5h-3c-.276 0-.5-.224-.5-.5s.224-.5.5-.5h3c.276 0 .5.224.5.5s-.224.5-.5.5z"/><path d="m13.5 7h-3c-.276 0-.5-.224-.5-.5s.224-.5.5-.5h3c.276 0 .5.224.5.5s-.224.5-.5.5z"/><path d="m23.5 24h-2c-.276 0-.5-.224-.5-.5v-5c0-.827.673-1.5 1.5-1.5s1.5.673 1.5 1.5v5c0 .276-.224.5-.5.5zm-1.5-1h1v-4.5c0-.276-.224-.5-.5-.5s-.5.224-.5.5z"/><path d="m19.5 24h-2c-.276 0-.5-.224-.5-.5v-5c0-.827.673-1.5 1.5-1.5s1.5.673 1.5 1.5v5c0 .276-.224.5-.5.5zm-1.5-1h1v-4.5c0-.276-.224-.5-.5-.5s-.5.224-.5.5z"/><path d="m18.5 18c-.276 0-.5-.224-.5-.5v-4c0-.827-.673-1.5-1.5-1.5h-2c-.276 0-.5-.224-.5-.5s.224-.5.5-.5h2c1.378 0 2.5 1.122 2.5 2.5v4c0 .276-.224.5-.5.5z"/><path d="m1.5 18c-.276 0-.5-.224-.5-.5v-10c0-1.378 1.122-2.5 2.5-2.5h4c.276 0 .5.224.5.5s-.224.5-.5.5h-4c-.827 0-1.5.673-1.5 1.5v10c0 .276-.224.5-.5.5z"/><path d="m2.5 24h-2c-.276 0-.5-.224-.5-.5v-5c0-.827.673-1.5 1.5-1.5s1.5.673 1.5 1.5v5c0 .276-.224.5-.5.5zm-1.5-1h1v-4.5c0-.276-.224-.5-.5-.5s-.5.224-.5.5z"/><path d="m6.5 24h-2c-.276 0-.5-.224-.5-.5v-5c0-.827.673-1.5 1.5-1.5s1.5.673 1.5 1.5v5c0 .276-.224.5-.5.5zm-1.5-1h1v-4.5c0-.276-.224-.5-.5-.5s-.5.224-.5.5z"/><path d="m5.5 18c-.276 0-.5-.224-.5-.5v-4c0-1.378 1.122-2.5 2.5-2.5h2c.276 0 .5.224.5.5s-.224.5-.5.5h-2c-.827 0-1.5.673-1.5 1.5v4c0 .276-.224.5-.5.5z"/><path d="m14.5 24h-5c-.276 0-.5-.224-.5-.5v-15c0-.276.224-.5.5-.5h5c.276 0 .5.224.5.5v15c0 .276-.224.5-.5.5zm-4.5-1h4v-14h-4z"/><path d="m14.5 1h-5c-.276 0-.5-.224-.5-.5s.224-.5.5-.5h5c.276 0 .5.224.5.5s-.224.5-.5.5z"/></svg>