<svg id="_x31__px" height="512" viewBox="0 0 24 24" width="512" xmlns="http://www.w3.org/2000/svg"><path d="m15.25 19.001c-.414 0-.75-.336-.75-.75s.336-.75.75-.75.75.337.75.75-.336.75-.75.75z"/><path d="m17.506 22.006c-.675 0-1.31-.264-1.786-.741-.195-.196-.195-.513 0-.707.195-.195.512-.195.707 0 .576.578 1.582.578 2.158 0 .195-.195.512-.195.707 0 .195.194.195.511 0 .707-.477.477-1.111.741-1.786.741z"/><path d="m11.5 17.499c-.152 0-.303-.069-.4-.201-.165-.221-.12-.534.102-.699.087-.065 2.191-1.602 6.305-1.602s6.207 1.537 6.294 1.603c.221.165.265.477.101.697-.165.222-.478.266-.699.104-.019-.015-1.942-1.403-5.695-1.403-3.784 0-5.688 1.389-5.707 1.402-.092.067-.197.099-.301.099z"/><path d="m17.506 24.01c-1.634 0-2.997-.558-4.051-1.656-1.224-1.273-1.955-3.267-1.955-5.331 0-.042.005-.083.015-.122l.724-3.278c.208-.939.946-1.686 1.883-1.9l2.825-.648c.365-.084.751-.085 1.118 0l2.815.647c.937.215 1.675.961 1.881 1.9l.728 3.294c.008.035.012.071.012.107v.151c0 1.53-.511 3.694-1.943 5.181-1.06 1.098-2.423 1.655-4.052 1.655zm-5.006-6.935c.014 1.406.46 3.319 1.677 4.586.858.896 1.978 1.349 3.329 1.349 1.347 0 2.468-.454 3.33-1.349 1.227-1.272 1.664-3.152 1.664-4.487v-.097l-.716-3.241c-.124-.564-.566-1.012-1.129-1.141l-2.814-.647c-.219-.05-.45-.05-.671 0l-2.824.648c-.563.129-1.006.577-1.131 1.141z"/><path d="m19.776 19.001c-.414 0-.75-.336-.75-.75s.336-.75.75-.75.75.337.75.75-.336.75-.75.75z"/><path d="m10.5 21h-10c-.276 0-.5-.224-.5-.5v-5c0-.276.224-.5.5-.5h10c.276 0 .5.224.5.5s-.224.5-.5.5h-9.5v4h9.5c.276 0 .5.224.5.5s-.224.5-.5.5z"/><path d="m10.5 16h-5c-.276 0-.5-.224-.5-.5v-15c0-.276.224-.5.5-.5h5c.276 0 .5.224.5.5v15c0 .276-.224.5-.5.5zm-4.5-1h4v-14h-4z"/><path d="m2.5 16c-.276 0-.5-.224-.5-.5v-12c0-.276.224-.5.5-.5h3c.276 0 .5.224.5.5s-.224.5-.5.5h-2.5v11.5c0 .276-.224.5-.5.5z"/><path d="m5.5 7h-3c-.276 0-.5-.224-.5-.5s.224-.5.5-.5h3c.276 0 .5.224.5.5s-.224.5-.5.5z"/><path d="m5.5 10h-3c-.276 0-.5-.224-.5-.5s.224-.5.5-.5h3c.276 0 .5.224.5.5s-.224.5-.5.5z"/><path d="m5.5 13h-3c-.276 0-.5-.224-.5-.5s.224-.5.5-.5h3c.276 0 .5.224.5.5s-.224.5-.5.5z"/><path d="m10.5 13h-1c-.276 0-.5-.224-.5-.5s.224-.5.5-.5h1c.276 0 .5.224.5.5s-.224.5-.5.5z"/><path d="m10.5 10h-1c-.276 0-.5-.224-.5-.5s.224-.5.5-.5h1c.276 0 .5.224.5.5s-.224.5-.5.5z"/><path d="m10.5 7h-1c-.276 0-.5-.224-.5-.5s.224-.5.5-.5h1c.276 0 .5.224.5.5s-.224.5-.5.5z"/><path d="m10.5 4h-1c-.276 0-.5-.224-.5-.5s.224-.5.5-.5h1c.276 0 .5.224.5.5s-.224.5-.5.5z"/><path d="m4 19c-.552 0-1-.448-1-1s.448-1 1-1 1 .448 1 1-.448 1-1 1zm0-1.001.5.001z"/><path d="m9.5 18.5h-1c-.276 0-.5-.224-.5-.5s.224-.5.5-.5h1c.276 0 .5.224.5.5s-.224.5-.5.5z"/></svg>