<svg id="_x31__px" height="512" viewBox="0 0 24 24" width="512" xmlns="http://www.w3.org/2000/svg"><path d="m20.5 24h-17c-1.379 0-2.5-1.122-2.5-2.5v-10c0-.276.224-.5.5-.5h21c.276 0 .5.224.5.5v10c0 1.378-1.121 2.5-2.5 2.5zm-18.5-12v9.5c0 .827.673 1.5 1.5 1.5h17c.827 0 1.5-.673 1.5-1.5v-9.5z"/><path d="m23.5 12h-23c-.276 0-.5-.224-.5-.5s.224-.5.5-.5h23c.276 0 .5.224.5.5s-.224.5-.5.5z"/><path d="m19.5 21h-15c-.276 0-.5-.224-.5-.5s.224-.5.5-.5h15c.276 0 .5.224.5.5s-.224.5-.5.5z"/><path d="m19.5 18h-15c-.276 0-.5-.224-.5-.5s.224-.5.5-.5h15c.276 0 .5.224.5.5s-.224.5-.5.5z"/><path d="m19.5 15h-15c-.276 0-.5-.224-.5-.5s.224-.5.5-.5h15c.276 0 .5.224.5.5s-.224.5-.5.5z"/><path d="m17.5 8h-11c-1.379 0-2.5-1.122-2.5-2.5s1.121-2.5 2.5-2.5h11c1.379 0 2.5 1.122 2.5 2.5s-1.121 2.5-2.5 2.5zm-11-4c-.827 0-1.5.673-1.5 1.5s.673 1.5 1.5 1.5h11c.827 0 1.5-.673 1.5-1.5s-.673-1.5-1.5-1.5z"/><path d="m7.5 9c-.276 0-.5-.224-.5-.5v-6c0-.276.224-.5.5-.5s.5.224.5.5v6c0 .276-.224.5-.5.5z"/><path d="m16.5 9c-.276 0-.5-.224-.5-.5v-6c0-.276.224-.5.5-.5s.5.224.5.5v6c0 .276-.224.5-.5.5z"/><path d="m2.5 12c-.276 0-.5-.224-.5-.5v-5c0-.827.673-1.5 1.5-1.5h1c.276 0 .5.224.5.5s-.224.5-.5.5h-1c-.275 0-.5.224-.5.5v5c0 .276-.224.5-.5.5z"/><path d="m21.5 12c-.276 0-.5-.224-.5-.5v-5c0-.276-.225-.5-.5-.5h-1c-.276 0-.5-.224-.5-.5s.224-.5.5-.5h1c.827 0 1.5.673 1.5 1.5v5c0 .276-.224.5-.5.5z"/></svg>