<svg id="_x31__px" height="512" viewBox="0 0 24 24" width="512" xmlns="http://www.w3.org/2000/svg"><path d="m7.5 22h-6c-.827 0-1.5-.673-1.5-1.5v-17c0-.827.673-1.5 1.5-1.5h5c.827 0 1.5.673 1.5 1.5v18c0 .276-.224.5-.5.5zm-6-19c-.276 0-.5.224-.5.5v17c0 .276.224.5.5.5h5.5v-17.5c0-.276-.224-.5-.5-.5z"/><path d="m4.5 15h-1c-.276 0-.5-.224-.5-.5v-1c0-.276.224-.5.5-.5h1c.276 0 .5.224.5.5v1c0 .276-.224.5-.5.5zm-.5-1h.01z"/><path d="m4.5 11h-1c-.276 0-.5-.224-.5-.5v-1c0-.276.224-.5.5-.5h1c.276 0 .5.224.5.5v1c0 .276-.224.5-.5.5zm-.5-1h.01z"/><path d="m4.5 7h-1c-.276 0-.5-.224-.5-.5v-1c0-.276.224-.5.5-.5h1c.276 0 .5.224.5.5v1c0 .276-.224.5-.5.5zm-.5-1h.01z"/><path d="m4.5 19h-1c-.276 0-.5-.224-.5-.5v-1c0-.276.224-.5.5-.5h1c.276 0 .5.224.5.5v1c0 .276-.224.5-.5.5zm-.5-1h.01z"/><path d="m22.5 22h-15c-.276 0-.5-.224-.5-.5v-10c0-.276.224-.5.5-.5h15c.827 0 1.5.673 1.5 1.5v8c0 .827-.673 1.5-1.5 1.5zm-14.5-1h14.5c.276 0 .5-.224.5-.5v-8c0-.276-.224-.5-.5-.5h-14.5z"/><path d="m13.5 12h-3c-.276 0-.5-.224-.5-.5v-5c0-.276.224-.5.5-.5h3c.276 0 .5.224.5.5v5c0 .276-.224.5-.5.5zm-2.5-1h2v-4h-2z"/><path d="m20.5 12h-3c-.276 0-.5-.224-.5-.5v-5c0-.276.224-.5.5-.5h3c.276 0 .5.224.5.5v5c0 .276-.224.5-.5.5zm-2.5-1h2v-4h-2z"/><path d="m14.5 7h-5c-.276 0-.5-.224-.5-.5s.224-.5.5-.5h5c.276 0 .5.224.5.5s-.224.5-.5.5z"/><path d="m21.5 7h-5c-.276 0-.5-.224-.5-.5s.224-.5.5-.5h5c.276 0 .5.224.5.5s-.224.5-.5.5z"/><path d="m17.5 22h-4c-.276 0-.5-.224-.5-.5v-3c0-.827.673-1.5 1.5-1.5h2c.827 0 1.5.673 1.5 1.5v3c0 .276-.224.5-.5.5zm-3.5-1h3v-2.5c0-.276-.224-.5-.5-.5h-2c-.276 0-.5.224-.5.5z"/><path d="m20.5 15h-10c-.276 0-.5-.224-.5-.5s.224-.5.5-.5h10c.276 0 .5.224.5.5s-.224.5-.5.5z"/></svg>