<svg id="_x31__px" height="512" viewBox="0 0 24 24" width="512" xmlns="http://www.w3.org/2000/svg"><path d="m18.5 24c-.06 0-.119-.01-.177-.032-.224-.084-.355-.315-.316-.55l.903-5.418h-2.41c-.188 0-.358-.104-.444-.271s-.071-.367.037-.52l5-7c.139-.192.393-.26.606-.168.216.094.337.326.291.557l-.88 4.402h2.39c.182 0 .35.099.438.258s.083.353-.014.507l-5 8c-.094.15-.256.235-.424.235zm-1.028-7h2.028c.147 0 .286.064.382.177.095.112.136.26.111.405l-.588 3.525 3.193-5.107h-2.098c-.149 0-.292-.067-.387-.183s-.133-.268-.104-.415l.543-2.716z"/><path d="m15.5 20h-7c-.276 0-.5-.224-.5-.5v-13c0-.15.067-.292.183-.387.116-.094.268-.132.415-.103l10.5 2.1c.271.054.447.317.393.588-.055.271-.329.446-.588.392l-9.903-1.98v11.89h6.5c.276 0 .5.224.5.5s-.224.5-.5.5z"/><path d="m12.5 13h-1c-.276 0-.5-.224-.5-.5v-1c0-.276.224-.5.5-.5h1c.276 0 .5.224.5.5v1c0 .276-.224.5-.5.5zm-.5-1h.01z"/><path d="m16.5 13h-1c-.276 0-.5-.224-.5-.5v-1c0-.276.224-.5.5-.5h1c.276 0 .5.224.5.5v1c0 .276-.224.5-.5.5zm-.5-1h.01z"/><path d="m12.5 17h-1c-.276 0-.5-.224-.5-.5v-1c0-.276.224-.5.5-.5h1c.276 0 .5.224.5.5v1c0 .276-.224.5-.5.5zm-.5-1h.01z"/><path d="m8.5 20h-7c-.827 0-1.5-.673-1.5-1.5v-4.195c0-.7.496-1.316 1.18-1.465l7.214-1.578c.268-.06.536.112.595.381.06.27-.111.536-.382.595l-7.214 1.578c-.228.05-.393.255-.393.489v4.195c0 .276.225.5.5.5h7c.276 0 .5.224.5.5s-.224.5-.5.5z"/><path d="m5.5 16h-2c-.276 0-.5-.224-.5-.5s.224-.5.5-.5h2c.276 0 .5.224.5.5s-.224.5-.5.5z"/><path d="m5.5 18h-2c-.276 0-.5-.224-.5-.5s.224-.5.5-.5h2c.276 0 .5.224.5.5s-.224.5-.5.5z"/><path d="m1.519 13.777c-.014 0-.026 0-.039-.001-.275-.021-.481-.262-.46-.537l.982-12.777c.019-.261.236-.462.498-.462h3c.262 0 .479.201.498.461l.9 11.709c.021.275-.185.516-.46.537-.255.01-.516-.184-.536-.46l-.865-11.247h-2.074l-.947 12.315c-.02.263-.24.462-.497.462z"/><path d="m6.5 1h-5c-.276 0-.5-.224-.5-.5s.224-.5.5-.5h5c.276 0 .5.224.5.5s-.224.5-.5.5z"/></svg>