<svg id="_x31__px" height="512" viewBox="0 0 24 24" width="512" xmlns="http://www.w3.org/2000/svg"><path d="m18 24c-.066 0-.132-.013-.194-.04-.238-.099-5.806-2.506-5.806-7.424v-4.179c0-.214.137-.405.34-.474l5.5-1.857c.104-.035.217-.035.32 0l5.5 1.857c.203.068.34.259.34.474v4.179c0 4.918-5.568 7.325-5.806 7.425-.062.026-.128.039-.194.039zm-5-11.284v3.82c0 3.785 4.055 5.958 5 6.414.944-.457 5-2.638 5-6.414v-3.82l-5-1.688z"/><path d="m17.5 10.5h1v13h-1z"/><path d="m12.5 16.036h11v1h-11z"/><path d="m10.5 20h-2c-.276 0-.5-.224-.5-.5v-13c0-.15.067-.292.183-.387s.27-.132.415-.104l15 3c.271.054.447.317.393.588-.055.271-.33.448-.588.392l-14.403-2.879v11.89h1.5c.276 0 .5.224.5.5s-.224.5-.5.5z"/><path d="m8.5 20h-7c-.827 0-1.5-.673-1.5-1.5v-4.195c0-.7.496-1.316 1.18-1.465l7.214-1.578c.266-.06.536.112.595.381.06.27-.111.536-.382.595l-7.214 1.578c-.228.05-.393.255-.393.489v4.195c0 .276.225.5.5.5h7c.276 0 .5.224.5.5s-.224.5-.5.5z"/><path d="m5.5 16h-2c-.276 0-.5-.224-.5-.5s.224-.5.5-.5h2c.276 0 .5.224.5.5s-.224.5-.5.5z"/><path d="m5.5 18h-2c-.276 0-.5-.224-.5-.5s.224-.5.5-.5h2c.276 0 .5.224.5.5s-.224.5-.5.5z"/><path d="m1.519 13.777c-.014 0-.026 0-.039-.001-.275-.021-.481-.262-.46-.537l.982-12.777c.019-.261.236-.462.498-.462h3c.262 0 .479.201.498.461l.9 11.709c.021.275-.185.516-.46.537-.26.01-.516-.184-.536-.46l-.865-11.247h-2.074l-.947 12.315c-.02.263-.24.462-.497.462z"/><path d="m6.5 1h-5c-.276 0-.5-.224-.5-.5s.224-.5.5-.5h5c.276 0 .5.224.5.5s-.224.5-.5.5z"/></svg>