<svg id="_x31__px" height="512" viewBox="0 0 24 24" width="512" xmlns="http://www.w3.org/2000/svg"><path d="m22.5 22h-14c-.276 0-.5-.224-.5-.5v-13c0-.15.067-.292.183-.387.116-.094.268-.132.415-.103l15 3c.234.047.402.252.402.49v9c0 .827-.673 1.5-1.5 1.5zm-13.5-1h13.5c.276 0 .5-.224.5-.5v-8.59l-14-2.8z"/><path d="m12.5 15h-1c-.276 0-.5-.224-.5-.5v-1c0-.276.224-.5.5-.5h1c.276 0 .5.224.5.5v1c0 .276-.224.5-.5.5zm-.5-1h.01z"/><path d="m16.5 15h-1c-.276 0-.5-.224-.5-.5v-1c0-.276.224-.5.5-.5h1c.276 0 .5.224.5.5v1c0 .276-.224.5-.5.5zm-.5-1h.01z"/><path d="m12.5 19h-1c-.276 0-.5-.224-.5-.5v-1c0-.276.224-.5.5-.5h1c.276 0 .5.224.5.5v1c0 .276-.224.5-.5.5zm-.5-1h.01z"/><path d="m16.5 19h-1c-.276 0-.5-.224-.5-.5v-1c0-.276.224-.5.5-.5h1c.276 0 .5.224.5.5v1c0 .276-.224.5-.5.5zm-.5-1h.01z"/><path d="m20.5 15h-1c-.276 0-.5-.224-.5-.5v-1c0-.276.224-.5.5-.5h1c.276 0 .5.224.5.5v1c0 .276-.224.5-.5.5zm-.5-1h.01z"/><path d="m20.5 19h-1c-.276 0-.5-.224-.5-.5v-1c0-.276.224-.5.5-.5h1c.276 0 .5.224.5.5v1c0 .276-.224.5-.5.5zm-.5-1h.01z"/><path d="m8.5 22h-7c-.827 0-1.5-.673-1.5-1.5v-4.195c0-.7.496-1.316 1.18-1.465l7.213-1.578c.272-.059.536.111.595.381s-.112.536-.381.595l-7.214 1.578c-.228.05-.393.255-.393.489v4.195c0 .276.224.5.5.5h7c.276 0 .5.224.5.5s-.224.5-.5.5z"/><path d="m5.5 18h-2c-.276 0-.5-.224-.5-.5s.224-.5.5-.5h2c.276 0 .5.224.5.5s-.224.5-.5.5z"/><path d="m5.5 20h-2c-.276 0-.5-.224-.5-.5s.224-.5.5-.5h2c.276 0 .5.224.5.5s-.224.5-.5.5z"/><path d="m1.518 15.777c-.013 0-.026 0-.039-.001-.275-.021-.481-.262-.46-.537l.982-12.778c.02-.26.238-.461.499-.461h3c.261 0 .479.201.499.461l.9 11.709c.021.275-.185.516-.46.537-.286.018-.516-.185-.537-.46l-.865-11.247h-2.074l-.947 12.316c-.02.262-.24.461-.498.461z"/><path d="m6.5 3h-5c-.276 0-.5-.224-.5-.5s.224-.5.5-.5h5c.276 0 .5.224.5.5s-.224.5-.5.5z"/></svg>