<svg id="_x31__px" height="512" viewBox="0 0 24 24" width="512" xmlns="http://www.w3.org/2000/svg"><path d="m15.25 19.001c-.414 0-.75-.336-.75-.75s.336-.75.75-.75.75.337.75.75-.336.75-.75.75z"/><path d="m17.506 22.005c-.675 0-1.31-.263-1.786-.741-.195-.195-.195-.512 0-.707.195-.194.512-.195.707.001.576.577 1.582.577 2.158 0 .195-.196.512-.195.707-.001.195.195.195.512 0 .707-.477.478-1.111.741-1.786.741z"/><path d="m11.501 17.498c-.153 0-.304-.07-.402-.202-.163-.221-.118-.533.103-.697.087-.065 2.191-1.602 6.305-1.602s6.207 1.537 6.295 1.603c.22.166.264.477.1.698-.165.221-.478.267-.699.103-.019-.014-1.942-1.403-5.695-1.403-3.754 0-5.689 1.39-5.708 1.404-.092.064-.196.096-.299.096z"/><path d="m17.506 24.01c-1.634 0-2.996-.557-4.05-1.656-1.225-1.275-1.956-3.268-1.956-5.332 0-.042.005-.083.015-.122l.724-3.28c.208-.939.946-1.685 1.883-1.9l2.826-.648c.363-.084.751-.084 1.118 0l2.814.647c.937.216 1.675.961 1.881 1.9l.728 3.294c.008.036.012.072.012.108v.151c0 1.53-.511 3.694-1.943 5.181-1.06 1.1-2.423 1.657-4.052 1.657zm-5.006-6.934c.014 1.406.46 3.318 1.677 4.586.858.895 1.979 1.348 3.329 1.348 1.348 0 2.468-.454 3.33-1.349 1.227-1.273 1.664-3.153 1.664-4.487v-.096l-.716-3.241c-.124-.564-.567-1.012-1.129-1.141l-2.814-.647c-.217-.05-.45-.05-.671 0l-2.825.648c-.562.129-1.005.577-1.13 1.141z"/><path d="m19.776 19.001c-.414 0-.75-.336-.75-.75s.336-.75.75-.75.75.337.75.75-.336.75-.75.75z"/><path d="m9.5 20h-1c-.276 0-.5-.224-.5-.5v-13c0-.15.067-.292.183-.387.117-.094.269-.132.415-.103l15 3c.234.047.402.252.402.49v2c0 .276-.224.5-.5.5s-.5-.224-.5-.5v-1.59l-14-2.8v11.89h.5c.276 0 .5.224.5.5s-.224.5-.5.5z"/><path d="m8.5 20h-7c-.827 0-1.5-.673-1.5-1.5v-4.195c0-.7.496-1.316 1.18-1.465l7.214-1.578c.267-.06.536.112.595.381.06.27-.111.536-.382.595l-7.214 1.578c-.228.05-.393.255-.393.489v4.195c0 .276.225.5.5.5h7c.276 0 .5.224.5.5s-.224.5-.5.5z"/><path d="m5.5 16h-2c-.276 0-.5-.224-.5-.5s.224-.5.5-.5h2c.276 0 .5.224.5.5s-.224.5-.5.5z"/><path d="m5.5 18h-2c-.276 0-.5-.224-.5-.5s.224-.5.5-.5h2c.276 0 .5.224.5.5s-.224.5-.5.5z"/><path d="m1.519 13.777c-.014 0-.026 0-.039-.001-.275-.021-.481-.262-.46-.537l.982-12.777c.019-.261.236-.462.498-.462h3c.262 0 .479.201.498.461l.9 11.709c.021.275-.185.516-.46.537-.26.01-.516-.184-.536-.46l-.865-11.247h-2.074l-.947 12.315c-.02.263-.24.462-.497.462z"/><path d="m6.5 1h-5c-.276 0-.5-.224-.5-.5s.224-.5.5-.5h5c.276 0 .5.224.5.5s-.224.5-.5.5z"/></svg>