<svg id="_x31__px" height="512" viewBox="0 0 24 24" width="512" xmlns="http://www.w3.org/2000/svg"><path d="m22.5 24h-21c-.827 0-1.5-.673-1.5-1.5v-5c0-.827.673-1.5 1.5-1.5h21c.827 0 1.5.673 1.5 1.5v5c0 .827-.673 1.5-1.5 1.5zm-21-7c-.276 0-.5.224-.5.5v5c0 .276.224.5.5.5h21c.276 0 .5-.224.5-.5v-5c0-.276-.224-.5-.5-.5z"/><path d="m9.5 17h-7c-.276 0-.5-.224-.5-.5v-1c0-.827.673-1.5 1.5-1.5h5c.827 0 1.5.673 1.5 1.5v1c0 .276-.224.5-.5.5zm-6.5-1h6v-.5c0-.276-.224-.5-.5-.5h-5c-.276 0-.5.224-.5.5z"/><path d="m21.5 17h-7c-.276 0-.5-.224-.5-.5v-1c0-.827.673-1.5 1.5-1.5h5c.827 0 1.5.673 1.5 1.5v1c0 .276-.224.5-.5.5zm-6.5-1h6v-.5c0-.276-.224-.5-.5-.5h-5c-.276 0-.5.224-.5.5z"/><path d="m8.5 24h-5c-.276 0-.5-.224-.5-.5v-3c0-.827.673-1.5 1.5-1.5h3c.827 0 1.5.673 1.5 1.5v3c0 .276-.224.5-.5.5zm-4.5-1h4v-2.5c0-.276-.224-.5-.5-.5h-3c-.276 0-.5.224-.5.5z"/><path d="m20.5 24h-5c-.276 0-.5-.224-.5-.5v-3c0-.827.673-1.5 1.5-1.5h3c.827 0 1.5.673 1.5 1.5v3c0 .276-.224.5-.5.5zm-4.5-1h4v-2.5c0-.276-.224-.5-.5-.5h-3c-.276 0-.5.224-.5.5z"/><path d="m8.5 15c-.26 0-.479-.201-.498-.464l-.967-13.536h-2.07l-.966 13.536c-.02.275-.25.489-.534.463-.275-.02-.483-.259-.463-.534l1-14c.018-.262.236-.465.498-.465h3c.262 0 .48.203.499.464l1 14c.02.275-.188.515-.463.534-.013.002-.025.002-.036.002z"/><path d="m20.5 15c-.26 0-.479-.201-.498-.464l-.967-13.536h-2.069l-.967 13.536c-.02.275-.248.489-.534.463-.275-.02-.483-.259-.463-.534l1-14c.018-.262.236-.465.498-.465h3c.262 0 .48.203.499.464l1 14c.02.275-.188.515-.463.534-.013.002-.025.002-.036.002z"/></svg>