<svg id="_x31__px" height="512" viewBox="0 0 24 24" width="512" xmlns="http://www.w3.org/2000/svg"><path d="m23.5 21h-8c-.276 0-.5-.224-.5-.5v-17c0-.182.099-.349.258-.438.158-.087.354-.083.507.014l8 5c.146.091.235.252.235.424v12c0 .276-.224.5-.5.5zm-7.5-1h7v-11.223l-7-4.375z"/><path d="m15.5 21h-8c-.276 0-.5-.224-.5-.5v-17c0-.182.099-.349.258-.438.158-.086.354-.082.507.014l8 5c.146.091.235.252.235.424v12c0 .276-.224.5-.5.5zm-7.5-1h7v-11.223l-7-4.375z"/><path d="m11.5 13c-.827 0-1.5-.673-1.5-1.5s.673-1.5 1.5-1.5 1.5.673 1.5 1.5-.673 1.5-1.5 1.5zm0-2c-.275 0-.5.224-.5.5s.225.5.5.5.5-.224.5-.5-.225-.5-.5-.5z"/><path d="m12.5 16h-2c-.276 0-.5-.224-.5-.5s.224-.5.5-.5h2c.276 0 .5.224.5.5s-.224.5-.5.5z"/><path d="m19.5 13c-.827 0-1.5-.673-1.5-1.5s.673-1.5 1.5-1.5 1.5.673 1.5 1.5-.673 1.5-1.5 1.5zm0-2c-.275 0-.5.224-.5.5s.225.5.5.5.5-.224.5-.5-.225-.5-.5-.5z"/><path d="m20.5 16h-2c-.276 0-.5-.224-.5-.5s.224-.5.5-.5h2c.276 0 .5.224.5.5s-.224.5-.5.5z"/><path d="m7.5 21h-7c-.276 0-.5-.224-.5-.5v-7c0-.133.053-.26.146-.354l2-2c.094-.093.221-.146.354-.146h5c.276 0 .5.224.5.5s-.224.5-.5.5h-4.793l-1.707 1.707v6.293h6.5c.276 0 .5.224.5.5s-.224.5-.5.5z"/><path d="m4.5 16h-4c-.276 0-.5-.224-.5-.5s.224-.5.5-.5h4c.276 0 .5.224.5.5s-.224.5-.5.5z"/></svg>