<svg id="_x31__px" height="512" viewBox="0 0 24 24" width="512" xmlns="http://www.w3.org/2000/svg"><path d="m23.5 21h-23c-.276 0-.5-.224-.5-.5v-5c0-.276.224-.5.5-.5h6.5v-1.5c0-.252.188-.465.438-.496l7.562-.945v-1.559c0-.252.188-.465.438-.496l8-1c.141-.017.286.026.393.121s.169.231.169.375v11c0 .276-.224.5-.5.5zm-22.5-1h22v-9.934l-7 .875v1.559c0 .252-.188.465-.438.496l-7.562.945v1.559c0 .276-.224.5-.5.5h-6.5z"/><path d="m5.5 16h-4c-.14 0-.273-.059-.368-.162-.094-.103-.142-.241-.13-.38l1-12c.021-.259.238-.458.498-.458h2c.26 0 .477.199.498.458l1 12c.012.139-.036.277-.13.38-.095.103-.228.162-.368.162zm-3.457-1h2.913l-.916-11h-1.08z"/><path d="m9.69 13.726c-.014 0-.028 0-.042-.002-.275-.023-.479-.264-.457-.54l.811-9.726c.021-.259.238-.458.498-.458h2c.26 0 .477.199.498.458l.773 9.278c.023.275-.181.517-.457.54-.282.026-.517-.182-.54-.457l-.734-8.819h-1.08l-.772 9.268c-.022.261-.241.458-.498.458z"/><path d="m23.5 18h-10c-.276 0-.5-.224-.5-.5s.224-.5.5-.5h10c.276 0 .5.224.5.5s-.224.5-.5.5z"/><path d="m20.5 15c-.276 0-.5-.224-.5-.5v-1c0-.276.224-.5.5-.5s.5.224.5.5v1c0 .276-.224.5-.5.5z"/><path d="m18.5 15c-.276 0-.5-.224-.5-.5v-1c0-.276.224-.5.5-.5s.5.224.5.5v1c0 .276-.224.5-.5.5z"/></svg>