<svg id="_x31__px" height="512" viewBox="0 0 24 24" width="512" xmlns="http://www.w3.org/2000/svg"><path d="m14.5 24h-14c-.276 0-.5-.224-.5-.5v-10c0-.276.224-.5.5-.5h14c.276 0 .5.224.5.5v10c0 .276-.224.5-.5.5zm-13.5-1h13v-9h-13z"/><path d="m23.5 24h-9c-.276 0-.5-.224-.5-.5v-6c0-.276.224-.5.5-.5h9c.276 0 .5.224.5.5v6c0 .276-.224.5-.5.5zm-8.5-1h8v-5h-8z"/><path d="m23.5 20h-4c-.276 0-.5-.224-.5-.5s.224-.5.5-.5h4c.276 0 .5.224.5.5s-.224.5-.5.5z"/><path d="m7.5 16h-7c-.276 0-.5-.224-.5-.5s.224-.5.5-.5h7c.276 0 .5.224.5.5s-.224.5-.5.5z"/><path d="m7.5 18h-7c-.276 0-.5-.224-.5-.5s.224-.5.5-.5h7c.276 0 .5.224.5.5s-.224.5-.5.5z"/><path d="m7.5 20h-7c-.276 0-.5-.224-.5-.5s.224-.5.5-.5h7c.276 0 .5.224.5.5s-.224.5-.5.5z"/><path d="m21.499 18c-.255 0-.474-.195-.497-.455l-.959-10.545h-1.086l-.959 10.545c-.025.275-.285.481-.543.453-.275-.025-.479-.268-.453-.543l1-11c.023-.258.239-.455.498-.455h2c.259 0 .475.197.498.455l1 11c.025.275-.178.519-.453.543-.015.002-.03.002-.046.002z"/><path d="m8.5 14h-6c-.276 0-.5-.224-.5-.5v-1c0-.827.673-1.5 1.5-1.5h4c.827 0 1.5.673 1.5 1.5v1c0 .276-.224.5-.5.5zm-5.5-1h5v-.5c0-.276-.225-.5-.5-.5h-4c-.275 0-.5.224-.5.5z"/><path d="m7.499 12c-.255 0-.474-.195-.497-.455l-.959-10.545h-1.086l-.959 10.545c-.025.275-.292.479-.543.453-.275-.025-.479-.268-.453-.543l1-11c.023-.258.239-.455.498-.455h2c.259 0 .475.197.498.455l1 11c.025.275-.178.519-.453.543-.015.002-.03.002-.046.002z"/></svg>