<svg id="_x31__px" height="512" viewBox="0 0 24 24" width="512" xmlns="http://www.w3.org/2000/svg"><path d="m18.5 22h-18c-.276 0-.5-.224-.5-.5v-3.699c0-.248.037-.495.111-.735l3.779-12.282c.073-.239.11-.486.11-.735v-.549c0-.827.673-1.5 1.5-1.5h8c.827 0 1.5.673 1.5 1.5v.549c0 .249.037.497.11.735l3.778 12.281c.075.241.112.488.112.736v3.699c0 .276-.224.5-.5.5zm-17.5-1h17v-3.199c0-.148-.022-.297-.066-.442l-3.779-12.281c-.103-.334-.155-.68-.155-1.029v-.549c0-.276-.225-.5-.5-.5h-8c-.275 0-.5.224-.5.5v.549c0 .349-.052.695-.155 1.029l-3.779 12.281c-.044.144-.066.293-.066.442z"/><path d="m23.5 22h-18c-.276 0-.5-.224-.5-.5s.224-.5.5-.5h17.5v-3.175c0-.163-.025-.322-.076-.474l-2.744-8.231c-.119-.356-.18-.729-.18-1.107v-.513c0-.276-.225-.5-.5-.5h-4c-.276 0-.5-.224-.5-.5s.224-.5.5-.5h4c.827 0 1.5.673 1.5 1.5v.513c0 .27.043.536.128.79l2.744 8.23c.085.255.128.521.128.792v3.675c0 .276-.224.5-.5.5z"/><path d="m15.917 10h-12.834c-.276 0-.5-.224-.5-.5s.224-.5.5-.5h12.834c.276 0 .5.224.5.5s-.224.5-.5.5z"/><path d="m17.27 14h-15.27c-.276 0-.5-.224-.5-.5s.224-.5.5-.5h15.27c.276 0 .5.224.5.5s-.224.5-.5.5z"/><path d="m21.5 12h-4.846c-.276 0-.5-.224-.5-.5s.224-.5.5-.5h4.846c.276 0 .5.224.5.5s-.224.5-.5.5z"/><path d="m22.833 16h-4.948c-.276 0-.5-.224-.5-.5s.224-.5.5-.5h4.948c.276 0 .5.224.5.5s-.224.5-.5.5z"/></svg>