<svg id="_x31__px" height="512" viewBox="0 0 24 24" width="512" xmlns="http://www.w3.org/2000/svg"><path d="m13.5 24h-13c-.276 0-.5-.224-.5-.5v-13c0-.276.224-.5.5-.5h13c.276 0 .5.224.5.5v13c0 .276-.224.5-.5.5zm-12.5-1h12v-12h-12z"/><path d="m5.5 16h-2c-.276 0-.5-.224-.5-.5v-2c0-.276.224-.5.5-.5h2c.276 0 .5.224.5.5v2c0 .276-.224.5-.5.5zm-1.5-1h1v-1h-1z"/><path d="m10.5 16h-2c-.276 0-.5-.224-.5-.5v-2c0-.276.224-.5.5-.5h2c.276 0 .5.224.5.5v2c0 .276-.224.5-.5.5zm-1.5-1h1v-1h-1z"/><path d="m5.5 21h-2c-.276 0-.5-.224-.5-.5v-2c0-.276.224-.5.5-.5h2c.276 0 .5.224.5.5v2c0 .276-.224.5-.5.5zm-1.5-1h1v-1h-1z"/><path d="m10.5 21h-2c-.276 0-.5-.224-.5-.5v-2c0-.276.224-.5.5-.5h2c.276 0 .5.224.5.5v2c0 .276-.224.5-.5.5zm-1.5-1h1v-1h-1z"/><path d="m12.5 11h-11c-.276 0-.5-.224-.5-.5v-2c0-.276.224-.5.5-.5h11c.276 0 .5.224.5.5v2c0 .276-.224.5-.5.5zm-10.5-1h10v-1h-10z"/><path d="m19.5 24h-6c-.276 0-.5-.224-.5-.5v-2c0-.276.224-.5.5-.5h6c.276 0 .5.224.5.5v2c0 .276-.224.5-.5.5zm-5.5-1h5v-1h-5z"/><path d="m16.5 22h-3c-.276 0-.5-.224-.5-.5v-6c0-.276.224-.5.5-.5h3c1.93 0 3.5 1.57 3.5 3.5s-1.57 3.5-3.5 3.5zm-2.5-1h2.5c1.378 0 2.5-1.122 2.5-2.5s-1.122-2.5-2.5-2.5h-2.5z"/><path d="m16.5 20c-.827 0-1.5-.673-1.5-1.5s.673-1.5 1.5-1.5 1.5.673 1.5 1.5-.673 1.5-1.5 1.5zm0-2c-.276 0-.5.224-.5.5s.224.5.5.5.5-.224.5-.5-.224-.5-.5-.5z"/><path d="m23.5 24c-.276 0-.5-.224-.5-.5v-3c0-.827-.673-1.5-1.5-1.5h-2c-.276 0-.5-.224-.5-.5s.224-.5.5-.5h2c1.378 0 2.5 1.122 2.5 2.5v3c0 .276-.224.5-.5.5z"/><path d="m16.5 16c-.276 0-.5-.224-.5-.5v-9c0-.827-.673-1.5-1.5-1.5h-8c-.827 0-1.5.673-1.5 1.5v2c0 .276-.224.5-.5.5s-.5-.224-.5-.5v-2c0-1.378 1.122-2.5 2.5-2.5h8c1.378 0 2.5 1.122 2.5 2.5v9c0 .276-.224.5-.5.5z"/><path d="m9.5 9c-.276 0-.5-.224-.5-.5v-4c0-.276.224-.5.5-.5s.5.224.5.5v4c0 .276-.224.5-.5.5z"/></svg>