<svg id="_x31__px" height="512" viewBox="0 0 24 24" width="512" xmlns="http://www.w3.org/2000/svg"><path d="m23.5 24h-23c-.276 0-.5-.224-.5-.5v-9c0-1.378 1.122-2.5 2.5-2.5h19c1.378 0 2.5 1.122 2.5 2.5v9c0 .276-.224.5-.5.5zm-22.5-1h22v-8.5c0-.827-.673-1.5-1.5-1.5h-19c-.827 0-1.5.673-1.5 1.5z"/><path d="m21.5 13h-8c-.276 0-.5-.224-.5-.5v-5c0-.827.673-1.5 1.5-1.5h6c.827 0 1.5.673 1.5 1.5v5c0 .276-.224.5-.5.5zm-7.5-1h7v-4.5c0-.276-.224-.5-.5-.5h-6c-.276 0-.5.224-.5.5z"/><path d="m16.5 9h-1c-.276 0-.5-.224-.5-.5s.224-.5.5-.5h1c.276 0 .5.224.5.5s-.224.5-.5.5z"/><path d="m19.5 9h-1c-.276 0-.5-.224-.5-.5s.224-.5.5-.5h1c.276 0 .5.224.5.5s-.224.5-.5.5z"/><path d="m16.5 11h-1c-.276 0-.5-.224-.5-.5s.224-.5.5-.5h1c.276 0 .5.224.5.5s-.224.5-.5.5z"/><path d="m19.5 11h-1c-.276 0-.5-.224-.5-.5s.224-.5.5-.5h1c.276 0 .5.224.5.5s-.224.5-.5.5z"/><path d="m19.5 7h-4c-.276 0-.5-.224-.5-.5 0-1.378 1.122-2.5 2.5-2.5s2.5 1.122 2.5 2.5c0 .276-.224.5-.5.5zm-3.415-1h2.829c-.207-.582-.763-1-1.415-1s-1.207.418-1.414 1z"/><path d="m17.5 5c-.276 0-.5-.224-.5-.5v-4c0-.276.224-.5.5-.5s.5.224.5.5v4c0 .276-.224.5-.5.5z"/><path d="m14.5 24h-5c-.276 0-.5-.224-.5-.5v-5.5c0-1.654 1.346-3 3-3s3 1.346 3 3v5.5c0 .276-.224.5-.5.5zm-4.5-1h4v-5c0-1.103-.897-2-2-2s-2 .897-2 2z"/><path d="m21.5 24h-5c-.276 0-.5-.224-.5-.5v-5.5c0-1.654 1.346-3 3-3s3 1.346 3 3v5.5c0 .276-.224.5-.5.5zm-4.5-1h4v-5c0-1.103-.897-2-2-2s-2 .897-2 2z"/><path d="m7.5 24h-5c-.276 0-.5-.224-.5-.5v-5.5c0-1.654 1.346-3 3-3s3 1.346 3 3v5.5c0 .276-.224.5-.5.5zm-4.5-1h4v-5c0-1.103-.897-2-2-2s-2 .897-2 2z"/></svg>