<svg id="_x31__px" height="512" viewBox="0 0 24 24" width="512" xmlns="http://www.w3.org/2000/svg"><path d="m18.5 16h-13c-3.033 0-5.5-2.467-5.5-5.5s2.467-5.5 5.5-5.5h13c3.033 0 5.5 2.467 5.5 5.5s-2.467 5.5-5.5 5.5zm-13-10c-2.481 0-4.5 2.019-4.5 4.5s2.019 4.5 4.5 4.5h13c2.481 0 4.5-2.019 4.5-4.5s-2.019-4.5-4.5-4.5z"/><path d="m15.5 16c-.276 0-.5-.224-.5-.5v-10c0-.276.224-.5.5-.5s.5.224.5.5v10c0 .276-.224.5-.5.5z"/><path d="m18.5 16c-.276 0-.5-.224-.5-.5v-10c0-.276.224-.5.5-.5s.5.224.5.5v10c0 .276-.224.5-.5.5z"/><path d="m18.5 8h-3c-.276 0-.5-.224-.5-.5s.224-.5.5-.5h3c.276 0 .5.224.5.5s-.224.5-.5.5z"/><path d="m18.5 11h-3c-.276 0-.5-.224-.5-.5s.224-.5.5-.5h3c.276 0 .5.224.5.5s-.224.5-.5.5z"/><path d="m18.5 14h-3c-.276 0-.5-.224-.5-.5s.224-.5.5-.5h3c.276 0 .5.224.5.5s-.224.5-.5.5z"/><path d="m10.5 6h-4c-.276 0-.5-.224-.5-.5v-2c0-.276.224-.5.5-.5h4c.276 0 .5.224.5.5v2c0 .276-.224.5-.5.5zm-3.5-1h3v-1h-3z"/><path d="m11.5 4h-6c-.276 0-.5-.224-.5-.5s.224-.5.5-.5h6c.276 0 .5.224.5.5s-.224.5-.5.5z"/><path d="m5 21c-1.103 0-2-.897-2-2s.897-2 2-2 2 .897 2 2-.897 2-2 2zm0-3c-.551 0-1 .449-1 1s.449 1 1 1 1-.449 1-1-.449-1-1-1z"/><path d="m19 21c-1.103 0-2-.897-2-2s.897-2 2-2 2 .897 2 2-.897 2-2 2zm0-3c-.551 0-1 .449-1 1s.449 1 1 1 1-.449 1-1-.449-1-1-1z"/><path d="m3.5 19h-3c-.276 0-.5-.224-.5-.5s.224-.5.5-.5h3c.276 0 .5.224.5.5s-.224.5-.5.5z"/><path d="m17.5 19h-11c-.276 0-.5-.224-.5-.5s.224-.5.5-.5h11c.276 0 .5.224.5.5s-.224.5-.5.5z"/><path d="m23.5 19h-3c-.276 0-.5-.224-.5-.5s.224-.5.5-.5h3c.276 0 .5.224.5.5s-.224.5-.5.5z"/><path d="m1.5 19c-.04 0-.081-.005-.122-.015-.268-.067-.431-.338-.364-.606l1-4c.066-.269.336-.432.606-.364.268.067.431.338.364.606l-1 4c-.056.228-.259.379-.484.379z"/><path d="m22.5 19c-.224 0-.428-.151-.484-.379l-1-4c-.067-.268.096-.539.364-.606.267-.067.539.095.606.364l1 4c.067.268-.096.539-.364.606-.041.01-.082.015-.122.015z"/></svg>