<svg id="_x31__px" height="512" viewBox="0 0 24 24" width="512" xmlns="http://www.w3.org/2000/svg"><path d="m14.5 17h-5c-1.378 0-2.5-1.122-2.5-2.5 0-.276.224-.5.5-.5h9c.276 0 .5.224.5.5 0 1.378-1.122 2.5-2.5 2.5zm-6.415-2c.207.582.763 1 1.415 1h5c.652 0 1.208-.418 1.415-1z"/><path d="m16.5 3h-9c-.276 0-.5-.224-.5-.5 0-1.378 1.122-2.5 2.5-2.5h5c1.378 0 2.5 1.122 2.5 2.5 0 .276-.224.5-.5.5zm-8.415-1h7.829c-.207-.582-.763-1-1.415-1h-5c-.651 0-1.207.418-1.414 1z"/><path d="m16.5 8h-9c-.276 0-.5-.224-.5-.5v-3c0-.276.224-.5.5-.5h9c.276 0 .5.224.5.5v3c0 .276-.224.5-.5.5zm-8.5-1h8v-2h-8z"/><path d="m16.5 13h-9c-.276 0-.5-.224-.5-.5v-3c0-.276.224-.5.5-.5h9c.276 0 .5.224.5.5v3c0 .276-.224.5-.5.5zm-8.5-1h8v-2h-8z"/><path d="m14.5 19h-5c-.276 0-.5-.224-.5-.5v-2c0-.276.224-.5.5-.5h5c.276 0 .5.224.5.5v2c0 .276-.224.5-.5.5zm-4.5-1h4v-1h-4z"/><path d="m17.5 15h-11c-.827 0-1.5-.673-1.5-1.5s.673-1.5 1.5-1.5h11c.827 0 1.5.673 1.5 1.5s-.673 1.5-1.5 1.5zm-11-2c-.276 0-.5.224-.5.5s.224.5.5.5h11c.276 0 .5-.224.5-.5s-.224-.5-.5-.5z"/><path d="m17.5 10h-11c-.827 0-1.5-.673-1.5-1.5s.673-1.5 1.5-1.5h11c.827 0 1.5.673 1.5 1.5s-.673 1.5-1.5 1.5zm-11-2c-.276 0-.5.224-.5.5s.224.5.5.5h11c.276 0 .5-.224.5-.5s-.224-.5-.5-.5z"/><path d="m17.5 5h-11c-.827 0-1.5-.673-1.5-1.5s.673-1.5 1.5-1.5h11c.827 0 1.5.673 1.5 1.5s-.673 1.5-1.5 1.5zm-11-2c-.276 0-.5.224-.5.5s.224.5.5.5h11c.276 0 .5-.224.5-.5s-.224-.5-.5-.5z"/><path d="m6.5 24c-.276 0-.5-.224-.5-.5v-9c0-.276.224-.5.5-.5s.5.224.5.5v9c0 .276-.224.5-.5.5z"/><path d="m17.5 24c-.276 0-.5-.224-.5-.5v-9c0-.276.224-.5.5-.5s.5.224.5.5v9c0 .276-.224.5-.5.5z"/><path d="m13.5 24h-3c-.276 0-.5-.224-.5-.5v-5c0-.276.224-.5.5-.5h3c.276 0 .5.224.5.5v5c0 .276-.224.5-.5.5zm-2.5-1h2v-4h-2z"/><path d="m10.5 21h-1c-.276 0-.5-.224-.5-.5s.224-.5.5-.5h1c.276 0 .5.224.5.5s-.224.5-.5.5z"/><path d="m10.5 23h-1c-.276 0-.5-.224-.5-.5s.224-.5.5-.5h1c.276 0 .5.224.5.5s-.224.5-.5.5z"/><path d="m14.5 21h-1c-.276 0-.5-.224-.5-.5s.224-.5.5-.5h1c.276 0 .5.224.5.5s-.224.5-.5.5z"/><path d="m14.5 23h-1c-.276 0-.5-.224-.5-.5s.224-.5.5-.5h1c.276 0 .5.224.5.5s-.224.5-.5.5z"/></svg>