<svg id="_x31__px" height="512" viewBox="0 0 24 24" width="512" xmlns="http://www.w3.org/2000/svg"><path d="m6.5 19c-3.033 0-5.5-2.467-5.5-5.5s2.467-5.5 5.5-5.5 5.5 2.467 5.5 5.5-2.467 5.5-5.5 5.5zm0-10c-2.481 0-4.5 2.019-4.5 4.5s2.019 4.5 4.5 4.5 4.5-2.019 4.5-4.5-2.019-4.5-4.5-4.5z"/><path d="m12.5 14h-12c-.276 0-.5-.224-.5-.5s.224-.5.5-.5h12c.276 0 .5.224.5.5s-.224.5-.5.5z"/><path d="m6.5 21c-.276 0-.5-.224-.5-.5v-2c0-.276.224-.5.5-.5s.5.224.5.5v2c0 .276-.224.5-.5.5z"/><path d="m2.5 21c-.276 0-.5-.224-.5-.5v-3.931c0-.276.224-.5.5-.5s.5.224.5.5v3.931c0 .276-.224.5-.5.5z"/><path d="m10.5 21c-.276 0-.5-.224-.5-.5v-3.931c0-.276.224-.5.5-.5s.5.224.5.5v3.931c0 .276-.224.5-.5.5z"/><path d="m7.5 9h-2c-.276 0-.5-.224-.5-.5v-1c0-.276.224-.5.5-.5h2c.276 0 .5.224.5.5v1c0 .276-.224.5-.5.5zm-1.5-1h1z"/><path d="m23.5 21h-6c-.276 0-.5-.224-.5-.5v-6c0-.276.224-.5.5-.5h6c.276 0 .5.224.5.5v6c0 .276-.224.5-.5.5zm-5.5-1h5v-5h-5z"/><path d="m23.5 17h-3c-.276 0-.5-.224-.5-.5s.224-.5.5-.5h3c.276 0 .5.224.5.5s-.224.5-.5.5z"/><path d="m23.5 19h-3c-.276 0-.5-.224-.5-.5s.224-.5.5-.5h3c.276 0 .5.224.5.5s-.224.5-.5.5z"/><path d="m22.5 15c-.256 0-.474-.195-.498-.455l-.959-10.545h-1.087l-.958 10.545c-.025.275-.262.479-.543.453-.275-.025-.478-.268-.453-.543l1-11c.023-.258.239-.455.498-.455h2c.259 0 .475.197.498.455l1 11c.025.275-.178.519-.453.543-.015.002-.03.002-.045.002z"/><path d="m17.5 18h-1c-1.378 0-2.5-1.122-2.5-2.5v-10c0-.827-.673-1.5-1.5-1.5h-4c-.827 0-1.5.673-1.5 1.5v2c0 .276-.224.5-.5.5s-.5-.224-.5-.5v-2c0-1.378 1.122-2.5 2.5-2.5h4c1.378 0 2.5 1.122 2.5 2.5v10c0 .827.673 1.5 1.5 1.5h1c.276 0 .5.224.5.5s-.224.5-.5.5z"/></svg>