<svg id="_x31__px" height="512" viewBox="0 0 24 24" width="512" xmlns="http://www.w3.org/2000/svg"><path d="m18.5 24c-.06 0-.119-.011-.177-.032-.224-.085-.355-.314-.316-.55l.903-5.418h-2.41c-.188 0-.358-.104-.444-.271-.086-.166-.071-.367.037-.52l5-7c.139-.192.393-.26.606-.168.216.094.337.326.291.557l-.88 4.402h2.39c.182 0 .35.099.438.258s.083.354-.014.507l-5 8c-.094.15-.256.235-.424.235zm-1.028-7h2.028c.147 0 .286.064.382.177.095.112.136.261.111.405l-.588 3.525 3.193-5.107h-2.098c-.149 0-.292-.067-.387-.183s-.133-.269-.104-.415l.543-2.716z"/><path d="m15.328 15.505c-.073 0-.147-.016-.217-.05-1.89-.912-3.111-2.857-3.111-4.955 0-3.033 2.468-5.5 5.5-5.5 2.171 0 4.145 1.282 5.027 3.266.112.252-.001.548-.254.66-.249.111-.547 0-.66-.254-.721-1.623-2.337-2.672-4.113-2.672-2.481 0-4.5 2.019-4.5 4.5 0 1.717.999 3.309 2.545 4.055.249.12.354.419.233.667-.086.178-.264.283-.45.283z"/><path d="m18.5 11h-7c-.276 0-.5-.224-.5-.5s.224-.5.5-.5h7c.276 0 .5.224.5.5s-.224.5-.5.5z"/><path d="m13.5 18c-.276 0-.5-.224-.5-.5v-3.931c0-.276.224-.5.5-.5s.5.224.5.5v3.931c0 .276-.224.5-.5.5z"/><path d="m18.5 6h-2c-.276 0-.5-.224-.5-.5v-1c0-.276.224-.5.5-.5h2c.276 0 .5.224.5.5v1c0 .276-.224.5-.5.5zm-1.5-1h1z"/><path d="m5.5 9h-2c-.276 0-.5-.224-.5-.5v-1c0-.276.224-.5.5-.5h2c.276 0 .5.224.5.5v1c0 .276-.224.5-.5.5zm-1.5-1h1z"/><path d="m8.5 18h-8c-.276 0-.5-.224-.5-.5v-7c0-.276.224-.5.5-.5h8c.276 0 .5.224.5.5v7c0 .276-.224.5-.5.5zm-7.5-1h7v-6h-7z"/><path d="m7.5 11h-6c-.276 0-.5-.224-.5-.5v-1c0-.827.673-1.5 1.5-1.5h4c.827 0 1.5.673 1.5 1.5v1c0 .276-.224.5-.5.5zm-5.5-1h5v-.5c0-.276-.225-.5-.5-.5h-4c-.275 0-.5.224-.5.5z"/><path d="m4.5 8c-.276 0-.5-.224-.5-.5v-5c0-1.378 1.121-2.5 2.5-2.5h9c1.379 0 2.5 1.122 2.5 2.5v2c0 .276-.224.5-.5.5s-.5-.224-.5-.5v-2c0-.827-.673-1.5-1.5-1.5h-9c-.827 0-1.5.673-1.5 1.5v5c0 .276-.224.5-.5.5z"/><path d="m2.5 18c-.276 0-.5-.224-.5-.5v-7c0-.276.224-.5.5-.5s.5.224.5.5v7c0 .276-.224.5-.5.5z"/><path d="m6.5 18c-.276 0-.5-.224-.5-.5v-7c0-.276.224-.5.5-.5s.5.224.5.5v7c0 .276-.224.5-.5.5z"/></svg>