<svg id="_x31__px" height="512" viewBox="0 0 24 24" width="512" xmlns="http://www.w3.org/2000/svg"><path d="m7.5 21h-6c-.276 0-.5-.224-.5-.5v-10c0-.099.029-.195.084-.277l1.445-2.168c.441-.661 1.177-1.055 1.971-1.055s1.53.394 1.971 1.055l1.445 2.168c.055.082.084.178.084.277v10c0 .276-.224.5-.5.5zm-5.5-1h5v-9.349l-1.361-2.042c-.509-.763-1.769-.763-2.277 0l-1.362 2.042z"/><path d="m23.5 21h-23c-.276 0-.5-.224-.5-.5s.224-.5.5-.5h23c.276 0 .5.224.5.5s-.224.5-.5.5z"/><path d="m16.5 21h-3c-.276 0-.5-.224-.5-.5v-11.5c0-1.103.897-2 2-2s2 .897 2 2v11.5c0 .276-.224.5-.5.5zm-2.5-1h2v-11c0-.551-.449-1-1-1s-1 .449-1 1z"/><path d="m22.5 21h-3c-.276 0-.5-.224-.5-.5v-9.5c0-1.103.897-2 2-2s2 .897 2 2v9.5c0 .276-.224.5-.5.5zm-2.5-1h2v-9c0-.551-.449-1-1-1s-1 .449-1 1z"/><path d="m7.5 11h-6c-.276 0-.5-.224-.5-.5s.224-.5.5-.5h6c.276 0 .5.224.5.5s-.224.5-.5.5z"/><path d="m13.5 15h-1c-1.378 0-2.5-1.122-2.5-2.5v-7c0-.827-.673-1.5-1.5-1.5h-2c-.827 0-1.5.673-1.5 1.5v2c0 .276-.224.5-.5.5s-.5-.224-.5-.5v-2c0-1.378 1.122-2.5 2.5-2.5h2c1.378 0 2.5 1.122 2.5 2.5v7c0 .827.673 1.5 1.5 1.5h1c.276 0 .5.224.5.5s-.224.5-.5.5z"/><path d="m11.5 8h-2c-.276 0-.5-.224-.5-.5s.224-.5.5-.5h2c.276 0 .5.224.5.5s-.224.5-.5.5z"/><path d="m22 8h-2c-.276 0-.5-.224-.5-.5s.224-.5.5-.5h2c.276 0 .5.224.5.5s-.224.5-.5.5z"/><path d="m21 10c-.276 0-.5-.224-.5-.5v-4c0-.827-.673-1.5-1.5-1.5h-2c-.827 0-1.5.673-1.5 1.5v2c0 .276-.224.5-.5.5s-.5-.224-.5-.5v-2c0-1.378 1.122-2.5 2.5-2.5h2c1.378 0 2.5 1.122 2.5 2.5v4c0 .276-.224.5-.5.5z"/></svg>