<svg id="_x31__px" height="512" viewBox="0 0 24 24" width="512" xmlns="http://www.w3.org/2000/svg"><path d="m23.5 11c-.049 0-.1-.007-.149-.023l-15.763-4.926-6.798 4.855c-.225.161-.537.108-.697-.116s-.108-.537.116-.697l7-5c.128-.09.29-.118.439-.07l16 5c.264.082.411.363.328.626-.066.214-.263.351-.476.351z"/><path d="m22.5 19h-21c-.276 0-.5-.224-.5-.5v-8.5c0-.276.224-.5.5-.5s.5.224.5.5v8h20v-7.67c0-.276.224-.5.5-.5s.5.224.5.5v8.17c0 .276-.224.5-.5.5z"/><path d="m10.5 19h-6c-.276 0-.5-.224-.5-.5v-6c0-.827.673-1.5 1.5-1.5h4c.827 0 1.5.673 1.5 1.5v6c0 .276-.224.5-.5.5zm-5.5-1h5v-5.5c0-.276-.224-.5-.5-.5h-4c-.276 0-.5.224-.5.5z"/><path d="m19.5 14h-6c-.276 0-.5-.224-.5-.5s.224-.5.5-.5h6c.276 0 .5.224.5.5s-.224.5-.5.5z"/><path d="m19.5 12h-6c-.276 0-.5-.224-.5-.5s.224-.5.5-.5h6c.276 0 .5.224.5.5s-.224.5-.5.5z"/><path d="m19.5 16h-6c-.276 0-.5-.224-.5-.5s.224-.5.5-.5h6c.276 0 .5.224.5.5s-.224.5-.5.5z"/><path d="m19.5 9.632c-.276 0-.5-.224-.5-.5v-3.132h-2v2.031c0 .276-.224.5-.5.5s-.5-.223-.5-.5v-2.531c0-.276.224-.5.5-.5h3c.276 0 .5.224.5.5v3.632c0 .277-.224.5-.5.5z"/><path d="m20.5 6h-5c-.276 0-.5-.224-.5-.5s.224-.5.5-.5h5c.276 0 .5.224.5.5s-.224.5-.5.5z"/></svg>